<svg xmlns="http://www.w3.org/2000/svg" xmlns:xlink="http://www.w3.org/1999/xlink" width="481" zoomAndPan="magnify" viewBox="0 0 360.75 374.999991" height="500" preserveAspectRatio="xMidYMid meet" version="1.0"><defs><filter x="0%" y="0%" width="100%" height="100%" id="445633b701"><feColorMatrix values="0 0 0 0 1 0 0 0 0 1 0 0 0 0 1 0 0 0 1 0" color-interpolation-filters="sRGB"/></filter><g/><clipPath id="9d5b632141"><path d="M 0 0.128906 L 360.5 0.128906 L 360.5 374.871094 L 0 374.871094 Z M 0 0.128906 " clip-rule="nonzero"/></clipPath><clipPath id="f30b64a373"><path d="M 0 249 L 360.5 249 L 360.5 374.871094 L 0 374.871094 Z M 0 249 " clip-rule="nonzero"/></clipPath><mask id="4b317428cd"><g filter="url(#445633b701)"><rect x="-79.365" width="519.48" fill="#000000" y="-82.499998" height="539.999987" fill-opacity="0.05"/></g></mask><clipPath id="a871ebcf07"><path d="M 13 23.433594 L 359.949219 23.433594 L 359.949219 125.003906 L 13 125.003906 Z M 13 23.433594 " clip-rule="nonzero"/></clipPath><clipPath id="dec7bfbd5d"><path d="M 57.597656 -379.601562 L 552.089844 -256.3125 L 430.09375 232.996094 L -64.402344 109.703125 Z M 57.597656 -379.601562 " clip-rule="nonzero"/></clipPath><clipPath id="f87d790f42"><rect x="0" width="361" y="0" height="126"/></clipPath><clipPath id="c43ab62eda"><path d="M 32 0.128906 L 343 0.128906 L 343 344 L 32 344 Z M 32 0.128906 " clip-rule="nonzero"/></clipPath><mask id="c7e8e08f20"><g filter="url(#445633b701)"><rect x="-79.365" width="519.48" fill="#000000" y="-82.499998" height="539.999987" fill-opacity="0.75"/></g></mask><clipPath id="c4a510a6b5"><path d="M 0.539062 15 L 285 15 L 285 342.046875 L 0.539062 342.046875 Z M 0.539062 15 " clip-rule="nonzero"/></clipPath><clipPath id="00155e447d"><path d="M 164 0.128906 L 183 0.128906 L 183 18 L 164 18 Z M 164 0.128906 " clip-rule="nonzero"/></clipPath><clipPath id="5f4a031842"><path d="M 285 61.242188 L 308.8125 61.242188 L 308.8125 73 L 285 73 Z M 285 61.242188 " clip-rule="nonzero"/></clipPath><clipPath id="47a731e176"><rect x="0" width="311" y="0" height="344"/></clipPath><clipPath id="fe73a69a7b"><rect x="0" width="361" y="0" height="375"/></clipPath></defs><g clip-path="url(#9d5b632141)"><path fill="#ffffff" d="M 0 0.128906 L 360.5 0.128906 L 360.5 374.871094 L 0 374.871094 Z M 0 0.128906 " fill-opacity="1" fill-rule="nonzero"/><g transform="matrix(1, 0, 0, 1, 0, -0.000000000000016792)"><g clip-path="url(#fe73a69a7b)"><g clip-path="url(#f30b64a373)"><g mask="url(#4b317428cd)"><g transform="matrix(1, 0, 0, 1, 0, 249)"><g clip-path="url(#f87d790f42)"><g clip-path="url(#a871ebcf07)"><g clip-path="url(#dec7bfbd5d)"><path fill="#495536" d="M 69.484375 40.292969 C 70.117188 37.742188 70.117188 37.742188 70.117188 37.742188 C 70.117188 37.742188 70.117188 37.742188 69.484375 40.292969 Z M 291.230469 84.75 C 296.328125 86.023438 301.425781 87.292969 307.160156 86.015625 C 306.523438 88.5625 309.074219 89.199219 308.4375 91.746094 C 309.078125 100.03125 318.003906 107.671875 316.734375 112.769531 C 318.011719 118.5 317.375 121.050781 319.289062 124.234375 C 318.015625 129.332031 323.757812 138.886719 325.035156 144.617188 C 323.765625 149.714844 328.867188 161.820312 328.234375 164.367188 C 330.777344 154.171875 325.679688 152.902344 327.585938 145.253906 C 330.125 135.058594 327.578125 134.421875 326.933594 126.140625 C 322.464844 111.488281 325.023438 122.957031 327.570312 123.59375 C 332.667969 124.863281 337.128906 128.683594 337.128906 128.683594 C 337.128906 128.683594 336.496094 131.230469 336.496094 131.230469 C 339.050781 142.699219 340.957031 135.050781 339.042969 131.867188 C 336.488281 120.402344 323.742188 117.222656 319.273438 102.570312 C 317.359375 99.386719 316.71875 91.105469 316.71875 91.105469 C 321.816406 92.375 333.289062 100.652344 335.203125 103.835938 C 347.3125 109.5625 342.222656 119.121094 348.597656 126.128906 C 354.335938 135.679688 349.882812 142.691406 347.976562 150.339844 C 347.339844 152.886719 342.25 162.449219 345.433594 160.535156 C 353.074219 151.609375 351.160156 148.425781 353.703125 138.230469 C 354.335938 135.679688 354.332031 124.847656 354.332031 124.847656 C 361.339844 129.304688 361.976562 126.757812 368.351562 133.761719 C 372.816406 137.582031 373.457031 145.863281 377.285156 152.230469 C 379.199219 155.414062 372.808594 126.75 370.257812 126.113281 C 371.539062 131.847656 370.894531 123.566406 360.699219 121.023438 C 350.503906 118.480469 352.410156 110.832031 349.863281 110.199219 C 352.410156 110.832031 362.605469 113.375 364.519531 116.558594 L 369.617188 117.832031 C 363.242188 110.828125 360.058594 112.742188 355.59375 108.921875 C 351.769531 102.550781 348.582031 104.464844 346.035156 103.828125 C 332.648438 92.371094 341.566406 89.179688 353.039062 97.453125 C 355.585938 98.089844 354.953125 100.636719 354.316406 103.1875 C 358.144531 109.554688 366.425781 108.914062 374.074219 110.820312 C 375.984375 114.003906 384.273438 124.191406 386.1875 127.378906 C 388.738281 128.011719 390.015625 133.746094 390.015625 133.746094 C 388.738281 128.011719 386.1875 127.378906 384.910156 121.644531 C 383.632812 115.910156 379.171875 112.089844 377.257812 108.90625 C 375.34375 105.722656 365.148438 103.179688 367.054688 95.535156 C 367.691406 92.984375 379.800781 98.710938 382.347656 99.347656 C 386.808594 103.167969 398.917969 108.894531 400.195312 114.625 C 401.476562 120.359375 405.9375 124.179688 404.023438 120.996094 C 404.023438 120.996094 404.660156 118.445312 404.660156 118.445312 C 402.746094 115.261719 402.746094 115.261719 400.832031 112.078125 C 397.003906 105.707031 400.191406 103.796875 390.628906 98.703125 C 381.707031 91.066406 371.511719 88.523438 361.3125 85.980469 C 353.667969 84.074219 346.019531 82.167969 337.738281 82.808594 C 329.457031 83.453125 326.90625 82.816406 319.261719 80.910156 C 316.710938 80.273438 314.796875 77.089844 314.796875 77.089844 L 115.984375 27.519531 L 107.703125 28.164062 C 99.421875 28.804688 97.507812 25.621094 90.496094 21.164062 C 86.035156 17.34375 75.839844 14.804688 68.191406 12.898438 C 57.996094 10.355469 47.800781 7.8125 36.332031 10.367188 C 25.503906 10.375 27.417969 13.558594 21.046875 17.386719 C 17.863281 19.300781 17.863281 19.300781 14.679688 21.214844 C 14.679688 21.214844 14.042969 23.761719 14.042969 23.761719 C 10.859375 25.675781 16.59375 24.398438 20.410156 19.933594 C 24.230469 15.472656 37.613281 16.101562 43.34375 14.824219 C 48.441406 16.09375 59.273438 16.089844 58.636719 18.636719 C 56.730469 26.285156 46.535156 23.742188 43.351562 25.65625 C 40.167969 27.566406 34.433594 28.847656 30.613281 33.308594 C 26.792969 37.769531 26.792969 37.769531 22.972656 42.234375 C 20.425781 41.597656 26.792969 37.769531 26.792969 37.769531 C 29.980469 35.855469 42.082031 30.753906 45.265625 28.839844 C 52.910156 30.746094 59.921875 35.203125 66.292969 31.375 C 66.925781 28.824219 70.113281 26.914062 72.660156 27.546875 C 84.128906 24.992188 90.503906 31.996094 75.851562 36.464844 C 70.753906 35.195312 68.839844 32.011719 62.472656 35.835938 C 56.738281 37.113281 54.824219 33.929688 48.457031 37.757812 C 45.90625 37.121094 45.90625 37.121094 45.90625 37.121094 L 51.003906 38.390625 C 56.738281 37.113281 64.386719 39.019531 69.484375 40.292969 C 64.386719 39.019531 62.480469 46.667969 52.28125 44.125 C 42.085938 41.582031 37.632812 48.59375 41.453125 44.132812 C 38.902344 43.496094 19.804688 65.808594 22.988281 63.894531 C 29.355469 60.070312 33.8125 53.058594 39.546875 51.78125 C 51.011719 49.222656 47.828125 51.136719 56.109375 50.496094 C 56.109375 50.496094 51.019531 60.054688 50.382812 62.605469 C 47.839844 72.800781 47.207031 75.347656 47.210938 86.179688 C 49.125 89.363281 49.121094 78.53125 49.753906 75.984375 C 51.660156 68.335938 51.019531 60.054688 60.570312 54.316406 C 69.488281 51.125 69.484375 40.292969 82.863281 40.921875 C 86.046875 39.007812 102.613281 37.722656 105.160156 38.359375 C 105.160156 38.359375 100.707031 45.371094 100.070312 47.917969 C 86.695312 58.121094 73.953125 54.941406 66.3125 63.867188 C 65.675781 66.417969 63.769531 74.0625 68.859375 64.503906 C 68.859375 64.503906 72.046875 62.589844 72.046875 62.589844 C 72.046875 62.589844 77.777344 61.3125 80.328125 61.949219 C 82.875 62.582031 90.515625 53.660156 82.242188 65.132812 C 75.238281 71.507812 75.238281 71.507812 70.144531 81.066406 C 68.238281 88.714844 65.691406 88.078125 63.148438 98.273438 C 63.785156 95.726562 71.425781 86.800781 75.242188 82.339844 C 76.515625 77.242188 86.066406 71.5 89.886719 67.039062 C 90.523438 64.488281 93.707031 62.578125 94.980469 57.476562 C 96.25 52.378906 104.53125 51.738281 108.351562 47.277344 C 114.085938 46 117.269531 44.085938 119.820312 44.71875 C 119.820312 44.71875 125.550781 43.441406 130.648438 44.714844 C 126.828125 49.175781 119.824219 55.550781 116.640625 57.464844 C 110.273438 61.292969 107.085938 63.203125 103.902344 65.117188 C 103.902344 65.117188 100.71875 67.03125 98.171875 66.394531 C 97.535156 68.945312 115.371094 62.5625 122.375 56.1875 C 129.378906 49.8125 134.476562 51.082031 144.671875 53.625 C 144.671875 53.625 138.304688 57.449219 137.667969 60 C 137.03125 62.546875 129.390625 71.472656 124.292969 70.203125 C 118.5625 71.480469 112.828125 72.757812 104.546875 73.402344 C 94.351562 70.859375 95.636719 87.421875 89.902344 88.699219 C 87.351562 88.066406 79.078125 99.539062 75.894531 101.453125 C 71.4375 108.464844 79.714844 96.988281 85.445312 95.710938 C 88.628906 93.796875 83.53125 92.527344 92.449219 89.335938 C 98.183594 88.058594 98.820312 85.507812 96.277344 95.703125 C 95.640625 98.253906 95.640625 98.253906 95.007812 100.804688 C 95.007812 100.804688 95.640625 98.253906 98.828125 96.339844 C 99.460938 93.792969 102.640625 81.046875 102.640625 81.046875 C 108.371094 79.769531 105.824219 79.132812 114.105469 78.492188 C 117.289062 76.578125 123.023438 75.300781 127.484375 79.121094 C 130.035156 79.753906 126.222656 95.050781 122.402344 99.511719 C 118.582031 103.972656 118.582031 103.972656 112.214844 107.800781 C 108.394531 112.261719 105.207031 114.175781 106.480469 109.078125 C 104.574219 116.726562 96.925781 114.816406 93.113281 130.113281 C 93.113281 130.113281 97.570312 123.101562 101.390625 118.636719 C 107.757812 114.8125 110.941406 112.898438 117.3125 109.070312 C 123.679688 105.246094 119.859375 109.707031 123.050781 118.625 C 121.78125 123.722656 116.6875 133.28125 114.78125 140.929688 C 116.695312 144.113281 116.054688 135.832031 119.238281 133.917969 C 119.875 131.367188 126.234375 116.710938 124.320312 113.527344 C 124.957031 110.976562 130.675781 88.039062 133.863281 86.125 C 138.316406 79.113281 135.769531 78.476562 145.957031 70.1875 C 149.140625 68.273438 154.230469 58.714844 159.328125 59.984375 C 165.0625 58.707031 163.148438 55.523438 173.980469 55.515625 C 173.980469 55.515625 185.449219 52.960938 184.8125 55.511719 C 180.355469 62.519531 167.617188 70.175781 159.980469 79.097656 C 159.34375 81.648438 152.339844 88.023438 148.519531 92.484375 C 145.335938 94.398438 145.335938 94.398438 141.515625 98.863281 C 140.242188 103.960938 135.796875 121.800781 136.429688 119.253906 C 140.25 114.789062 142.792969 104.59375 146.613281 100.132812 C 150.433594 95.671875 150.433594 95.671875 154.886719 88.660156 C 154.886719 88.660156 161.890625 82.285156 161.257812 84.832031 C 159.351562 92.480469 159.984375 89.929688 160.628906 98.210938 C 158.722656 105.859375 145.355469 126.894531 138.988281 130.71875 C 135.800781 132.632812 134.53125 137.730469 133.261719 142.828125 C 134.53125 137.730469 148.539062 124.980469 148.539062 124.980469 C 148.539062 124.980469 152.996094 117.96875 152.996094 117.96875 C 156.820312 124.335938 156.820312 124.335938 154.914062 131.984375 C 153.007812 139.628906 151.101562 147.277344 149.832031 152.375 C 151.101562 147.277344 155.558594 140.265625 158.101562 130.070312 C 160.007812 122.421875 156.816406 113.507812 160.636719 109.042969 C 161.269531 106.496094 161.269531 106.496094 163.175781 98.847656 C 165.71875 88.652344 168.269531 89.289062 173.359375 79.726562 C 176.542969 77.816406 182.277344 76.535156 186.097656 72.074219 C 189.917969 67.613281 193.101562 65.699219 196.921875 61.238281 C 200.105469 59.324219 213.476562 49.121094 207.753906 61.230469 C 200.113281 70.15625 194.386719 82.261719 182.285156 87.367188 C 178.464844 91.832031 167.011719 116.046875 168.289062 121.78125 C 172.117188 128.148438 167.023438 137.710938 168.300781 143.445312 C 168.300781 143.445312 168.308594 154.273438 167.671875 156.824219 C 168.308594 154.273438 170.207031 135.796875 172.121094 138.980469 C 172.765625 147.261719 176.589844 153.632812 177.234375 161.914062 C 176.597656 164.464844 178.511719 167.648438 177.875 170.195312 C 177.875 170.195312 177.863281 148.535156 178.496094 145.984375 C 180.40625 138.339844 179.121094 121.773438 179.113281 110.945312 C 180.382812 105.847656 181.65625 100.746094 184.203125 101.382812 C 184.839844 98.835938 189.292969 91.824219 195.664062 87.996094 C 196.300781 85.449219 198.847656 86.082031 199.484375 83.535156 C 197.578125 91.179688 198.855469 96.914062 196.949219 104.5625 C 195.675781 109.660156 193.128906 109.023438 194.40625 114.757812 C 194.40625 114.757812 189.320312 135.148438 188.6875 137.695312 C 188.6875 137.695312 188.050781 140.246094 188.050781 140.246094 C 188.050781 140.246094 191.871094 135.785156 192.507812 133.234375 C 194.414062 125.585938 195.683594 120.488281 197.589844 112.84375 C 197.589844 112.84375 199.496094 105.195312 201.410156 108.382812 C 205.238281 114.75 201.417969 119.210938 205.246094 125.582031 L 207.15625 128.765625 C 207.15625 128.765625 206.515625 120.484375 204.601562 117.296875 C 206.507812 109.652344 203.316406 100.734375 207.773438 93.722656 C 210.957031 91.808594 211.59375 89.261719 212.226562 86.710938 C 211.59375 89.261719 214.140625 89.894531 213.507812 92.445312 C 213.507812 92.445312 216.054688 93.082031 217.332031 98.8125 C 216.695312 101.363281 217.976562 107.097656 217.339844 109.644531 C 219.886719 110.28125 218.617188 115.378906 217.347656 120.476562 C 212.253906 130.035156 205.894531 144.695312 203.988281 152.339844 C 203.351562 154.890625 190.621094 173.375 190.621094 173.375 C 191.257812 170.824219 194.441406 168.910156 197.625 167 C 202.082031 159.988281 205.898438 155.523438 210.355469 148.515625 C 213.539062 146.601562 209.089844 164.441406 208.457031 166.992188 C 209.089844 164.441406 211.632812 154.246094 211.632812 154.246094 C 215.453125 149.785156 215.445312 138.953125 221.816406 135.128906 C 225.636719 130.664062 229.441406 104.539062 225.613281 98.171875 C 219.875 88.617188 217.953125 74.601562 215.398438 63.136719 C 216.027344 49.757812 223.046875 65.042969 224.957031 68.226562 C 228.785156 74.597656 228.148438 77.144531 229.429688 82.878906 C 230.707031 88.613281 235.167969 92.429688 237.082031 95.617188 C 237.089844 106.445312 239.636719 107.082031 237.09375 117.277344 C 235.1875 124.925781 235.1875 124.925781 237.101562 128.109375 C 235.832031 133.207031 228.828125 139.582031 226.921875 147.230469 C 224.378906 157.425781 225.019531 165.707031 223.75 170.804688 C 225.019531 165.707031 226.925781 158.058594 228.832031 150.414062 C 230.738281 142.765625 230.738281 142.765625 237.109375 138.941406 C 237.109375 138.941406 237.75 147.222656 237.75 147.222656 C 240.300781 147.859375 244.132812 165.058594 242.863281 170.15625 C 244.132812 165.058594 245.40625 159.960938 243.492188 156.777344 C 239.664062 150.40625 237.738281 125.558594 242.191406 118.550781 C 244.097656 110.902344 243.464844 113.453125 245.371094 105.804688 C 246.007812 103.253906 249.195312 112.171875 249.195312 112.171875 C 252.386719 121.089844 249.839844 120.457031 251.117188 126.1875 C 254.945312 132.558594 249.851562 142.117188 251.132812 147.851562 C 250.496094 150.398438 254.945312 132.558594 256.214844 127.460938 C 254.9375 121.726562 254.9375 121.726562 255.574219 119.179688 C 254.296875 113.445312 248.554688 103.890625 249.191406 101.34375 C 249.183594 90.511719 241.53125 77.773438 238.339844 68.855469 C 238.972656 66.308594 247.898438 73.945312 250.449219 74.582031 C 257.457031 79.039062 254.273438 80.953125 261.285156 85.40625 C 263.835938 86.042969 263.839844 96.875 265.753906 100.058594 C 270.859375 112.160156 268.308594 111.523438 268.953125 119.804688 C 270.867188 122.992188 267.695312 146.566406 264.511719 148.480469 C 261.328125 150.394531 260.0625 166.320312 261.976562 169.507812 C 261.339844 172.054688 259.433594 179.703125 260.070312 177.152344 C 264.523438 170.140625 261.96875 158.675781 265.789062 154.214844 C 270.246094 147.203125 271.515625 142.105469 272.792969 147.835938 C 276.621094 154.207031 278.535156 157.390625 282.359375 163.757812 C 283.636719 169.492188 284.28125 177.773438 284.28125 177.773438 C 288.09375 162.480469 282.996094 161.210938 282.351562 152.929688 C 281.082031 158.027344 281.71875 155.476562 277.890625 149.109375 C 274.0625 142.738281 274.0625 142.738281 272.785156 137.007812 C 271.507812 131.273438 275.320312 115.980469 277.871094 116.613281 C 283.605469 115.335938 288.066406 119.15625 292.527344 122.976562 C 296.992188 126.796875 296.992188 126.796875 298.902344 129.980469 C 298.902344 129.980469 298.277344 143.363281 297.640625 145.910156 C 297.003906 148.460938 296.367188 151.007812 296.367188 151.007812 C 297.003906 148.460938 297.003906 148.460938 297.640625 145.910156 C 300.183594 135.714844 299.546875 138.261719 304.007812 142.082031 C 310.382812 149.085938 307.835938 148.453125 309.75 151.636719 C 311.664062 154.820312 313.582031 168.835938 312.941406 160.554688 C 311.027344 157.371094 311.65625 143.988281 309.105469 143.355469 C 302.09375 138.898438 311.007812 124.875 300.8125 122.335938 C 293.800781 117.878906 289.335938 114.058594 284.875 110.238281 C 279.777344 108.96875 277.222656 97.5 277.855469 94.953125 C 278.492188 92.402344 274.664062 86.035156 274.664062 86.035156 C 284.859375 88.578125 289.960938 89.847656 293.148438 98.765625 C 296.339844 107.683594 309.09375 121.691406 309.726562 119.144531 C 309.726562 119.144531 307.816406 115.960938 305.265625 115.324219 C 303.351562 112.140625 301.4375 108.953125 300.160156 103.222656 C 295.699219 99.402344 292.507812 90.484375 291.230469 84.75 Z M 291.230469 84.75 " fill-opacity="1" fill-rule="evenodd"/></g></g></g></g></g></g><g clip-path="url(#c43ab62eda)"><g mask="url(#c7e8e08f20)"><g transform="matrix(1, 0, 0, 1, 32, -0.000000000000016792)"><g clip-path="url(#47a731e176)"><g clip-path="url(#c4a510a6b5)"><path fill="#495436" d="M 236.402344 128.871094 C 230.242188 129.773438 223.945312 129.292969 217.765625 129.761719 C 208.6875 130.636719 201.132812 132.164062 192.421875 134.84375 C 187.085938 136.378906 181.253906 137.726562 175.324219 138.542969 C 183.914062 140.023438 192.957031 141.78125 203.96875 147.664062 C 183.328125 138.722656 170.9375 143.074219 154.105469 138.632812 C 153.214844 138.488281 152.328125 138.316406 151.453125 138.117188 C 142.546875 135.566406 133.414062 133.015625 124.222656 131.71875 C 119.820312 131.105469 115.753906 130.695312 111.429688 131.941406 C 108.207031 133.089844 103.070312 136.605469 98.082031 140.023438 C 100.410156 140.410156 102.589844 141.164062 104.847656 142.515625 C 110.355469 146.019531 121.625 150.105469 128.097656 151.082031 C 121.296875 151.269531 109.679688 147.9375 103.328125 145.289062 C 100.132812 143.929688 97.1875 143.792969 93.773438 144.199219 C 92.804688 144.351562 91.871094 144.539062 90.976562 144.773438 C 90.199219 145.257812 89.464844 145.695312 88.78125 146.085938 C 86.488281 147.421875 85.023438 148.761719 83.445312 150.890625 C 81.816406 153.222656 80.90625 155.300781 80.066406 158.007812 C 79.1875 161.210938 78.722656 164.238281 78.542969 167.277344 C 79.015625 166.804688 79.535156 166.328125 80.121094 165.84375 C 84.96875 162.339844 91.003906 160.558594 96.582031 158.535156 C 91.636719 161.15625 86.015625 163.839844 82.242188 168.0625 C 80.71875 169.855469 79.96875 171.320312 79.339844 173.585938 C 79.046875 174.914062 78.894531 176.175781 78.828125 177.4375 L 78.835938 177.5 C 79.6875 184.375 76.746094 193.34375 79.261719 200.148438 C 82.902344 206.332031 81.675781 212.703125 84.296875 217.386719 C 84.707031 218.117188 87.070312 222.015625 87.453125 222.742188 C 84.15625 221.660156 81.679688 218.878906 79.222656 216.359375 C 75.652344 212.703125 72.425781 212.164062 69.574219 209.074219 C 68.039062 207.339844 66.925781 205.554688 65.753906 203.570312 C 62.691406 198.4375 60.679688 194.640625 56.226562 190.433594 C 59.988281 195.167969 61.382812 199.179688 63.535156 204.679688 C 64.488281 207.019531 65.378906 209.09375 66.726562 211.25 C 68.242188 213.519531 69.625 214.96875 71.992188 216.367188 C 77.722656 220.238281 80.757812 224.34375 84.546875 228.554688 C 90.011719 234.636719 99.261719 239.539062 103.039062 245.152344 C 105.710938 249.132812 109.855469 250.332031 113.164062 253.710938 C 114.894531 255.480469 116.582031 257.613281 118.496094 259.964844 C 119.199219 260.828125 119.929688 261.71875 120.710938 262.632812 C 120.308594 262.546875 119.90625 262.464844 119.5 262.390625 C 116.332031 261.625 114.179688 260.296875 111.210938 259.136719 C 108.703125 258.15625 105.960938 258.140625 103.328125 257.011719 C 100.347656 255.714844 97.550781 253.554688 94.335938 252.054688 C 90.339844 250.53125 88.234375 249.199219 85.667969 245.601562 C 83.6875 242.84375 80.289062 241.59375 77.902344 238.71875 C 77.789062 238.585938 77.675781 238.445312 77.570312 238.300781 C 77.664062 238.4375 77.757812 238.566406 77.855469 238.699219 C 79.167969 240.460938 80.671875 241.703125 82.03125 242.921875 C 80.515625 241.742188 78.804688 240.476562 77.371094 238.441406 C 78.804688 240.476562 80.515625 241.742188 82.03125 242.921875 C 83.121094 243.898438 84.121094 244.871094 84.878906 246.09375 C 87.582031 250.414062 89.375 251.359375 93.5 253.777344 C 96.699219 255.5625 99.121094 257.828125 102.136719 259.542969 C 104.964844 260.921875 107.28125 261.222656 109.90625 262.386719 C 113.128906 263.964844 114.929688 265.535156 118.597656 266.585938 C 121.675781 267.601562 125.027344 271.105469 128.550781 272.945312 C 136.921875 277.328125 145.851562 281.480469 151.390625 286.457031 C 155.566406 290.351562 158.089844 293.65625 162.996094 296.664062 C 160.292969 296.355469 158.367188 295.261719 155.707031 295.507812 C 160.007812 296.785156 160.664062 299.457031 166.945312 299.839844 C 170.683594 300.015625 174.730469 297.894531 178.695312 297.222656 C 183.082031 296.476562 187.101562 296.648438 192.867188 296.84375 C 198.964844 297.339844 206.648438 297.769531 212.503906 295.9375 C 206.824219 298.6875 199.125 298.886719 192.867188 299.324219 C 183.359375 299.730469 180.847656 300.425781 177.152344 302.105469 C 179.898438 302.777344 182.660156 303.257812 185.394531 303.53125 C 192.539062 303.992188 199.984375 303.941406 207.144531 303.886719 C 255.714844 304.4375 232.617188 323.6875 279.691406 315.1875 C 234.382812 325.710938 251.558594 308.566406 207.453125 310.289062 C 198.722656 310.988281 191.023438 311.496094 182.257812 310.378906 C 178.785156 309.933594 174.53125 309.785156 171.652344 307.261719 C 173.222656 310.179688 178.890625 311.488281 181.976562 312.222656 C 194.003906 314.878906 193.179688 318.503906 201.664062 324.851562 C 203.792969 326.355469 205.589844 327.351562 208.09375 328.136719 C 211.097656 328.984375 213.363281 329.011719 216.402344 328.257812 C 213.378906 329.386719 211.035156 329.628906 207.851562 329.171875 C 205.09375 328.660156 203.070312 327.832031 200.605469 326.539062 C 199.230469 325.738281 198.0625 324.933594 196.996094 324.152344 C 198.164062 326.441406 199.078125 328.855469 199.976562 331.527344 C 200.339844 332.683594 200.707031 333.660156 201.316406 334.710938 C 201.890625 335.617188 202.398438 336.179688 203.28125 336.796875 C 205.574219 338.300781 208.300781 338.550781 210.976562 338.738281 C 208.164062 338.773438 205.421875 338.777344 202.832031 337.558594 C 201.746094 336.964844 201.085938 336.378906 200.320312 335.410156 C 199.492188 334.332031 198.992188 333.339844 198.460938 332.09375 C 196.464844 327.511719 194.402344 323.648438 190.597656 320.320312 C 188.128906 318.234375 186.136719 317.269531 182.988281 316.609375 C 181.042969 316.230469 179.207031 316.109375 177.320312 315.964844 C 171.890625 315.539062 171.167969 312.699219 166.671875 311.644531 C 168.941406 312.699219 170.164062 314.15625 171.824219 315.703125 C 173.488281 317.25 174.582031 317.636719 176.007812 319.496094 C 178.054688 322.167969 180.441406 324.792969 182.359375 327.644531 C 185.882812 332.851562 186.316406 336.355469 186.335938 342.355469 C 183.832031 333.4375 179.300781 328.832031 172.035156 323.230469 C 167.535156 319.761719 163.121094 316.785156 158.816406 310.882812 C 154.355469 304.761719 152.324219 303.113281 148.503906 299.355469 C 141.847656 292.820312 135.914062 291.929688 128.675781 286.800781 C 133.152344 292.199219 136.105469 292.578125 139.359375 298.550781 C 140.097656 299.898438 141.351562 301.375 142.339844 302.917969 C 142.996094 303.929688 143.519531 306.132812 144.753906 308.214844 C 146.359375 310.921875 148.695312 313.570312 149.207031 314.640625 C 151.386719 319.078125 152.742188 322.523438 152.945312 327.535156 C 152.746094 333.34375 150.902344 337.359375 147.910156 342.253906 C 149.78125 337.328125 150.753906 333.195312 149.425781 328 C 148.28125 323.960938 146.394531 321.382812 143.804688 318.164062 C 139.355469 313.074219 134.898438 308.945312 132.082031 304.796875 C 132.707031 302.222656 132.859375 300.367188 132.363281 297.910156 C 132.359375 299.535156 131.925781 301.441406 130.859375 304.023438 C 128.6875 309.300781 126.15625 312.21875 124.894531 318.632812 C 123.117188 310.359375 124.289062 310.859375 126.203125 302.648438 C 126.695312 299.898438 124.488281 297.683594 124.1875 294.890625 C 124.109375 293.363281 122.207031 293.289062 121.5 291.957031 C 120.066406 289.714844 118.65625 289.214844 117.457031 288.199219 C 116.101562 287.042969 113.53125 283.316406 112.972656 287.613281 C 112.757812 289.292969 110.269531 289.617188 110.820312 291.140625 C 110.386719 292.808594 111.085938 294.730469 110.882812 296.585938 C 110.429688 300.679688 110.703125 300.085938 110.847656 301.421875 C 110.925781 302.109375 110.292969 303.636719 110.957031 305.929688 C 113.316406 314.046875 114.890625 322.230469 114.828125 332.214844 C 112.652344 319.734375 107.574219 310.175781 102.164062 301.089844 C 103.46875 298.5625 103.425781 296.796875 102.699219 293.980469 C 102.855469 298.054688 101.3125 299.761719 99.882812 300.710938 C 97.132812 302.527344 94.078125 304.101562 91.808594 306.203125 C 90.222656 307.605469 89.195312 308.8125 88.394531 310.796875 C 87.324219 313.457031 87.453125 315.703125 88.113281 318.453125 C 86.378906 315.78125 85.421875 313.605469 85.136719 310.40625 C 85.089844 307.503906 85.664062 305.425781 86.851562 302.808594 C 88.917969 298.664062 91.984375 295.273438 93.726562 291.511719 C 94.179688 290.613281 94.601562 289.777344 94.871094 288.855469 C 96.925781 284.105469 97.71875 278.886719 97.054688 274.753906 C 96.941406 277.328125 96.648438 279.589844 95.445312 281.902344 C 94.804688 283.273438 94.777344 284.816406 93.164062 286.101562 C 92.40625 284.039062 90.957031 280.984375 90.019531 278.644531 C 86.453125 269.761719 89.152344 262.972656 82.824219 255.550781 C 84.714844 260.316406 85.328125 263.050781 85.207031 265.078125 C 84.800781 272.042969 86.335938 271.308594 86.585938 278.335938 C 86.617188 279.296875 86.839844 280.398438 86.882812 281.746094 C 87.351562 285.359375 87.402344 288.230469 86.527344 291.785156 C 85.867188 294.484375 85.007812 296.34375 83.429688 298.621094 C 80.667969 302.402344 77.46875 305.101562 74.777344 309.0625 C 76.308594 304.871094 78.84375 301.253906 80.492188 297.089844 C 81.226562 295 81.523438 293.429688 81.535156 291.210938 C 81.394531 288.769531 81.289062 288.257812 81.554688 285.75 C 82.054688 281.964844 82.285156 281.367188 81.890625 277.34375 C 81.519531 282.777344 79.035156 285.652344 74.648438 288.785156 C 69.929688 292.003906 65.828125 293.992188 62.328125 298.71875 C 64.980469 293.316406 68.609375 290.660156 72.710938 286.53125 C 73.730469 285.472656 74.609375 284.503906 75.371094 283.421875 C 78.167969 279.445312 76.144531 274.246094 74.878906 270.070312 C 74.171875 267.5 73.71875 265.3125 73.539062 262.640625 C 73.40625 258.570312 72.929688 256.265625 71.800781 254.585938 C 69.464844 251.121094 62.601562 248.183594 67.988281 241.703125 C 66.691406 242.152344 65.765625 242.660156 64.726562 243.574219 C 63.734375 244.554688 63.179688 245.4375 62.695312 246.742188 C 62.207031 248.191406 62.101562 249.351562 62.210938 250.875 C 62.25 251.398438 62.3125 251.878906 62.398438 252.347656 C 62.417969 253.6875 63.070312 255.335938 63.761719 256.757812 C 64.269531 257.796875 64.769531 258.859375 65.222656 259.960938 C 66.425781 263.039062 66.972656 265.394531 66.769531 268.71875 C 66.519531 271.390625 65.972656 273.320312 64.523438 275.59375 C 63.285156 277.445312 62.082031 278.574219 60.316406 279.894531 C 56.878906 282.308594 53.652344 283.816406 50.398438 286.632812 C 52.714844 283.265625 55.777344 280.855469 58.238281 277.730469 C 59.308594 276.394531 60.015625 275.300781 60.570312 273.664062 C 61.042969 271.953125 61.039062 270.625 60.800781 268.875 C 60.378906 266.796875 59.570312 265.441406 58.332031 263.753906 C 57.976562 262.945312 54.511719 259.285156 53.707031 258.265625 C 51.257812 255.269531 49.054688 251.714844 48.839844 247.863281 C 48.550781 242.554688 50.214844 238.535156 51.273438 233.132812 C 52.269531 228.054688 53.863281 225.644531 54.949219 221.238281 C 55.445312 218.792969 55.453125 216.984375 54.992188 214.53125 C 54.941406 216.277344 54.339844 219.21875 53.335938 220.671875 C 52.925781 221.425781 52.507812 222.097656 52.054688 222.734375 C 51.726562 215.574219 49.722656 209.109375 49.1875 201.578125 C 48.753906 195.457031 47.375 190.242188 44.101562 184.203125 C 40.761719 179.039062 37.304688 175.519531 32.894531 172.101562 C 32.5 172.246094 32.117188 172.398438 31.75 172.546875 C 26.550781 174.46875 23.707031 175.320312 18.050781 174.296875 C 15.070312 173.488281 13.480469 171.769531 10.738281 170.597656 C 9.238281 170.023438 8.144531 169.910156 6.554688 170.199219 C 4.195312 170.644531 2.417969 171.777344 0.539062 173.21875 C 2.332031 171.503906 3.960938 170.167969 6.296875 169.265625 C 8.089844 168.714844 9.382812 168.671875 11.207031 169.066406 C 13.695312 169.746094 16.164062 171.34375 18.46875 171.597656 C 22.917969 171.898438 25.226562 171 28.671875 169.046875 C 23.214844 165.621094 17.644531 162.890625 12.195312 159.582031 C 10.160156 158.441406 8.242188 157.292969 6.589844 155.628906 C 5.984375 155.03125 5.519531 154.480469 5.144531 153.710938 C 4.867188 153.335938 4.726562 152.386719 4.757812 151.914062 C 4.933594 152.527344 5.183594 152.917969 5.605469 153.390625 C 5.777344 153.679688 6.992188 154.464844 7.316406 154.648438 C 8.636719 155.402344 11.84375 156.496094 13.316406 156.835938 C 19.144531 158.257812 24.976562 159.585938 30.671875 161.464844 C 33.480469 162.394531 35.972656 164.085938 38.535156 165.558594 C 40.503906 167.003906 42.257812 168.628906 44.199219 170.023438 C 49.492188 173.820312 58.390625 183.660156 62.164062 189.425781 C 64.292969 192.5 67.535156 197.488281 70.808594 200.648438 C 73.15625 202.914062 74.671875 204.144531 76.964844 206.78125 C 75.285156 203.84375 73.503906 201.355469 71.808594 198.542969 C 69.613281 194.917969 67.328125 190.0625 66.019531 187.152344 C 65.367188 185.707031 63.777344 184.277344 63 183 C 61.648438 180.558594 59.414062 179.160156 57.960938 176.925781 C 54.511719 171.453125 51.648438 168.445312 48.542969 162.738281 C 46.546875 159.070312 46.476562 152.871094 44.796875 150.714844 C 43.210938 148.675781 41.1875 147.085938 38.871094 145.402344 C 34.402344 142.308594 29.996094 139.90625 25.960938 136.179688 C 23.4375 133.78125 22.007812 131.738281 20.773438 128.484375 C 20.222656 127.65625 19.21875 122.519531 18.953125 121.226562 C 17.90625 116.125 16.84375 112.535156 13.972656 109.28125 C 17.710938 112.199219 20.144531 114.777344 22.640625 119.992188 C 23.570312 122.121094 24.367188 124.109375 25.605469 126.089844 C 26.992188 128.117188 28.242188 129.253906 30.300781 130.585938 C 33.683594 132.488281 37.636719 133.894531 41.375 135.378906 C 42.421875 136.773438 43.828125 138.484375 45.84375 140.808594 C 49.554688 145.226562 49.847656 149.734375 52.828125 153.996094 C 50.5625 148.6875 51.019531 144.488281 47.730469 139.265625 C 41.59375 130.75 42.761719 130.179688 41.644531 125.03125 C 41.597656 124.023438 41.570312 123.007812 41.550781 121.96875 C 41.707031 112.917969 42.886719 106.074219 46.234375 97.628906 C 49.722656 89.652344 53.578125 84.152344 59.546875 78.398438 C 59.300781 77.851562 58.953125 77.390625 58.453125 76.859375 C 58.128906 76.234375 55.628906 74.746094 55.003906 74.230469 C 53.539062 73.242188 52.308594 72.394531 51.039062 71.140625 C 49.917969 70.191406 48.832031 68.039062 48.445312 66.632812 C 49.429688 68.164062 50.386719 69.011719 51.984375 69.867188 C 53.421875 70.59375 54.742188 70.980469 56.273438 71.429688 C 57.949219 71.921875 59.394531 72.347656 60.980469 73.125 C 61.847656 73.472656 62.765625 74.164062 63.5625 74.960938 C 72.917969 68.050781 82.3125 65.914062 94.003906 64.277344 L 94.28125 64.246094 C 106.121094 45.503906 104.175781 49.089844 122.945312 37.449219 C 106.140625 49.601562 108.980469 48.671875 101.261719 63.605469 C 112.589844 62.730469 123.953125 62.597656 135.320312 62.183594 C 137.332031 62.109375 139.308594 62.03125 141.257812 61.941406 C 146.433594 51.4375 153.035156 34.210938 158.371094 26.636719 C 161.617188 22.371094 164.582031 20.554688 169.613281 18.8125 C 176.835938 16.761719 184.519531 16.257812 191.980469 15.777344 C 191.996094 15.773438 192.140625 15.757812 192.144531 15.757812 C 192.308594 15.746094 193.046875 15.550781 193.269531 15.503906 C 192.90625 15.613281 192.535156 15.730469 192.167969 15.839844 C 192.148438 15.84375 191.992188 15.871094 191.992188 15.875 C 184.644531 16.769531 177.140625 17.738281 170.226562 20.496094 C 165.796875 22.355469 163.304688 24.132812 160.691406 28.195312 C 158.628906 32.015625 156.613281 37.191406 154.582031 42.777344 C 158.460938 40.683594 162.382812 39.125 167.140625 38.148438 C 172.132812 37.179688 175.578125 37.238281 180.558594 38.011719 C 184.269531 38.609375 187.722656 39.433594 191.5 39.675781 C 195.476562 40.089844 200.070312 38.820312 203.589844 37.03125 C 199.441406 39.519531 196.328125 40.613281 191.511719 41 C 187.65625 41.160156 184.132812 40.710938 180.316406 40.488281 C 175.714844 40.316406 172.570312 40.574219 168.113281 41.875 C 161.832031 44.070312 156.636719 47.570312 151.40625 51.632812 C 150.179688 55.058594 148.933594 58.457031 147.660156 61.621094 C 178.226562 59.882812 201.695312 55.324219 230.210938 37.902344 C 231.164062 37.296875 231.464844 37.492188 232.585938 36.652344 C 231.644531 37.429688 231.191406 37.453125 230.332031 38.078125 C 211.015625 51.820312 193.761719 59.085938 174.625 63.707031 C 177.382812 63.988281 180.191406 64.394531 183.070312 64.957031 C 193.601562 67.386719 203.988281 70.019531 214.695312 71.582031 C 238.949219 74.234375 259.078125 65.789062 284.917969 63.066406 C 258.589844 66.457031 238.6875 76.144531 214.375 74.375 C 203.460938 73.265625 192.976562 71.054688 182.230469 68.949219 C 167.832031 66.941406 155.3125 68.296875 141.453125 69.46875 C 139.644531 69.707031 137.804688 69.9375 135.9375 70.164062 C 122.546875 71.621094 109.074219 72.699219 95.84375 75.335938 C 86.496094 77.3125 77.972656 79.636719 70.957031 86.460938 C 70.175781 87.285156 69.441406 88.085938 68.757812 88.886719 C 78.3125 87.085938 80.960938 89.765625 93.089844 90.089844 C 106.101562 89.671875 113.441406 85.519531 130.695312 85.648438 C 111.164062 86.523438 107.785156 91.367188 93.265625 93.285156 C 79.445312 94.140625 77.832031 90.980469 63.710938 96.132812 C 62.585938 98.210938 61.628906 100.464844 60.75 103.050781 C 58.753906 109.519531 58.332031 114.6875 58.742188 121.421875 C 60.027344 134.542969 63.902344 145.007812 69.882812 156.179688 C 70.027344 155.722656 70.175781 155.261719 70.332031 154.796875 C 71.734375 150.988281 73.203125 148.15625 75.726562 144.953125 C 78.375 141.765625 80.8125 139.785156 84.507812 137.890625 C 91.109375 134.496094 98.355469 129.066406 105.152344 126.019531 C 109.996094 121.996094 110.730469 118.398438 113.683594 113.105469 C 115.578125 109.980469 117.246094 108.082031 120.164062 105.859375 C 124.429688 103.046875 128.507812 101.585938 133.390625 100.179688 C 128.863281 102.074219 125.050781 104.003906 121.511719 107.460938 C 119.183594 109.75 117.992188 111.589844 116.785156 114.605469 C 115.355469 118.421875 114.773438 121.15625 113.578125 123.835938 C 117.515625 123.550781 121.179688 124.058594 125.386719 124.820312 C 130.265625 125.882812 135.125 127.214844 139.941406 128.675781 C 145.773438 128.078125 149.074219 127.253906 154.058594 124.09375 C 159.386719 120.613281 163.15625 117.625 168.988281 114.480469 C 163.234375 118.652344 160.78125 121.617188 156.015625 126.472656 C 153.800781 128.609375 151.84375 130.128906 149.753906 131.300781 C 150.945312 131.90625 152.125 132.453125 153.292969 132.953125 C 164.613281 136.519531 180.257812 134.355469 191.488281 131.625 C 200.519531 129.371094 208.34375 128.207031 217.644531 127.816406 C 224.578125 127.621094 230.109375 128.847656 236.402344 128.871094 " fill-opacity="1" fill-rule="nonzero"/></g><path fill="#6667bd" d="M 209.105469 15.863281 C 208.972656 20.324219 207.207031 24.742188 203.804688 28.140625 C 200.402344 31.546875 195.988281 33.308594 191.53125 33.441406 C 191.660156 28.988281 193.425781 24.566406 196.828125 21.164062 C 200.230469 17.761719 204.648438 15.996094 209.105469 15.863281 " fill-opacity="1" fill-rule="evenodd"/><path fill="#6667bd" d="M 228.050781 45.570312 C 231.265625 48.660156 235.617188 50.582031 240.429688 50.628906 C 245.238281 50.675781 249.628906 48.84375 252.90625 45.816406 C 249.6875 42.726562 245.335938 40.808594 240.527344 40.757812 C 235.71875 40.710938 231.324219 42.542969 228.050781 45.570312 " fill-opacity="1" fill-rule="evenodd"/><path fill="#6667bd" d="M 226.667969 9.914062 C 229.761719 13.132812 231.679688 17.484375 231.726562 22.296875 C 231.773438 27.101562 229.945312 31.496094 226.914062 34.769531 C 223.824219 31.554688 221.902344 27.203125 221.855469 22.390625 C 221.808594 17.582031 223.640625 13.191406 226.667969 9.914062 " fill-opacity="1" fill-rule="evenodd"/><path fill="#6667bd" d="M 255.730469 19.871094 C 251.3125 19.277344 246.667969 20.304688 242.761719 23.113281 C 238.851562 25.921875 236.398438 29.996094 235.546875 34.371094 C 239.96875 34.964844 244.613281 33.9375 248.523438 31.132812 C 252.425781 28.324219 254.882812 24.25 255.730469 19.871094 " fill-opacity="1" fill-rule="evenodd"/><path fill="#6667bd" d="M 141.550781 3.621094 C 141.6875 8.082031 143.449219 12.5 146.851562 15.898438 C 150.253906 19.300781 154.671875 21.066406 159.125 21.199219 C 159 16.742188 157.230469 12.320312 153.828125 8.921875 C 150.425781 5.519531 146.007812 3.753906 141.550781 3.621094 " fill-opacity="1" fill-rule="evenodd"/><g clip-path="url(#00155e447d)"><path fill="#6667bd" d="M 182.257812 -0.0507812 C 182.128906 4.402344 180.363281 8.820312 176.960938 12.222656 C 173.558594 15.625 169.140625 17.390625 164.683594 17.523438 C 164.816406 13.066406 166.578125 8.648438 169.984375 5.246094 C 173.382812 1.84375 177.800781 0.078125 182.257812 -0.0507812 " fill-opacity="1" fill-rule="evenodd"/></g><path fill="#6667bd" d="M 209.90625 4.894531 C 208.433594 9.105469 205.417969 12.78125 201.140625 14.996094 C 196.875 17.210938 192.128906 17.558594 187.84375 16.335938 C 189.3125 12.128906 192.332031 8.445312 196.601562 6.234375 C 200.871094 4.019531 205.617188 3.671875 209.90625 4.894531 " fill-opacity="1" fill-rule="evenodd"/><path fill="#6667bd" d="M 187.027344 18.957031 C 186.898438 23.414062 185.128906 27.832031 181.730469 31.234375 C 178.328125 34.636719 173.910156 36.402344 169.453125 36.53125 C 169.582031 32.074219 171.347656 27.65625 174.75 24.253906 C 178.152344 20.855469 182.570312 19.089844 187.027344 18.957031 " fill-opacity="1" fill-rule="evenodd"/><path fill="#6667bd" d="M 230.640625 132.917969 C 232.007812 137.164062 234.929688 140.917969 239.144531 143.242188 C 243.355469 145.5625 248.089844 146.03125 252.410156 144.917969 C 251.042969 140.671875 248.121094 136.921875 243.90625 134.59375 C 239.695312 132.273438 234.960938 131.808594 230.640625 132.917969 " fill-opacity="1" fill-rule="evenodd"/><path fill="#6667bd" d="M 229.085938 124.984375 C 227.769531 120.71875 228.007812 115.972656 230.125 111.652344 C 232.238281 107.332031 235.847656 104.230469 240.023438 102.660156 C 241.34375 106.917969 241.101562 111.671875 238.988281 115.992188 C 236.871094 120.3125 233.261719 123.414062 229.085938 124.984375 " fill-opacity="1" fill-rule="evenodd"/><path fill="#6667bd" d="M 237.65625 127.402344 C 240.410156 123.898438 244.457031 121.394531 249.214844 120.679688 C 253.96875 119.96875 258.570312 121.171875 262.234375 123.714844 C 259.484375 127.21875 255.433594 129.726562 250.675781 130.441406 C 245.921875 131.15625 241.316406 129.949219 237.65625 127.402344 " fill-opacity="1" fill-rule="evenodd"/><g clip-path="url(#5f4a031842)"><path fill="#6667bd" d="M 285.378906 64.367188 C 287.839844 68.082031 291.664062 70.90625 296.351562 72.007812 C 301.035156 73.105469 305.71875 72.273438 309.574219 70.035156 C 307.117188 66.320312 303.285156 63.492188 298.605469 62.394531 C 293.921875 61.300781 289.234375 62.125 285.378906 64.367188 " fill-opacity="1" fill-rule="evenodd"/></g><path fill="#6667bd" d="M 291.332031 83.101562 C 290.597656 78.703125 288.246094 74.5625 284.417969 71.660156 C 280.585938 68.746094 275.964844 67.597656 271.535156 68.078125 C 272.269531 72.472656 274.617188 76.609375 278.453125 79.523438 C 282.285156 82.425781 286.898438 83.574219 291.332031 83.101562 " fill-opacity="1" fill-rule="evenodd"/><path fill="#6667bd" d="M 271.03125 61.980469 C 271.09375 57.523438 272.796875 53.078125 276.148438 49.632812 C 279.507812 46.183594 283.894531 44.355469 288.351562 44.160156 C 288.28125 48.617188 286.582031 53.0625 283.226562 56.511719 C 279.875 59.960938 275.480469 61.785156 271.03125 61.980469 " fill-opacity="1" fill-rule="evenodd"/><path fill="#6667bd" d="M 160.28125 117.03125 C 156.835938 114.203125 154.425781 110.101562 153.808594 105.332031 C 153.199219 100.558594 154.507812 95.984375 157.132812 92.378906 C 160.578125 95.207031 162.996094 99.308594 163.601562 104.082031 C 164.210938 108.851562 162.90625 113.425781 160.28125 117.03125 " fill-opacity="1" fill-rule="evenodd"/><path fill="#6667bd" d="M 166.640625 121.421875 C 169.871094 124.492188 174.238281 126.382812 179.046875 126.398438 C 183.859375 126.414062 188.238281 124.554688 191.496094 121.507812 C 188.261719 118.4375 183.894531 116.546875 179.082031 116.527344 C 174.273438 116.511719 169.890625 118.375 166.640625 121.421875 " fill-opacity="1" fill-rule="evenodd"/><path fill="#6667bd" d="M 170.949219 112.203125 C 171.59375 107.792969 173.855469 103.605469 177.625 100.621094 C 181.394531 97.628906 185.984375 96.382812 190.429688 96.761719 C 189.789062 101.175781 187.523438 105.367188 183.753906 108.351562 C 179.984375 111.339844 175.394531 112.589844 170.949219 112.203125 " fill-opacity="1" fill-rule="evenodd"/><path fill="#6667bd" d="M 118.171875 11.441406 C 114.636719 14.160156 112.085938 18.175781 111.320312 22.925781 C 110.558594 27.675781 111.710938 32.292969 114.214844 35.984375 C 117.753906 33.261719 120.300781 29.242188 121.066406 24.5 C 121.828125 19.75 120.675781 15.132812 118.171875 11.441406 " fill-opacity="1" fill-rule="evenodd"/><path fill="#6667bd" d="M 120.195312 44.160156 C 123.707031 41.402344 128.222656 39.925781 133.019531 40.363281 C 137.8125 40.792969 141.996094 43.058594 144.949219 46.398438 C 141.445312 49.148438 136.921875 50.625 132.128906 50.191406 C 127.339844 49.757812 123.152344 47.5 120.195312 44.160156 " fill-opacity="1" fill-rule="evenodd"/><path fill="#6667bd" d="M 125.582031 35.394531 C 127.109375 31.207031 130.175781 27.5625 134.472656 25.402344 C 138.769531 23.246094 143.519531 22.953125 147.789062 24.226562 C 146.265625 28.421875 143.203125 32.058594 138.902344 34.21875 C 134.605469 36.382812 129.855469 36.671875 125.582031 35.394531 " fill-opacity="1" fill-rule="evenodd"/><path fill="#6667bd" d="M 188.285156 144.816406 C 187.945312 149.261719 189.242188 153.84375 192.269531 157.582031 C 195.296875 161.316406 199.503906 163.535156 203.925781 164.132812 C 204.257812 159.6875 202.964844 155.109375 199.941406 151.371094 C 196.914062 147.628906 192.703125 145.410156 188.285156 144.816406 " fill-opacity="1" fill-rule="evenodd"/><path fill="#6667bd" d="M 198.691406 141.121094 C 202.472656 143.480469 207.128906 144.464844 211.847656 143.523438 C 216.5625 142.578125 220.484375 139.886719 223.066406 136.25 C 219.285156 133.886719 214.628906 132.902344 209.910156 133.847656 C 205.195312 134.785156 201.277344 137.480469 198.691406 141.121094 " fill-opacity="1" fill-rule="evenodd"/><path fill="#6667bd" d="M 205.347656 148.558594 C 206.558594 152.851562 209.347656 156.703125 213.480469 159.171875 C 217.605469 161.644531 222.320312 162.273438 226.675781 161.316406 C 225.460938 157.023438 222.671875 153.171875 218.542969 150.703125 C 214.414062 148.230469 209.699219 147.597656 205.347656 148.558594 " fill-opacity="1" fill-rule="evenodd"/><path fill="#6667bd" d="M 86.761719 96.148438 C 91.015625 94.8125 95.769531 95.039062 100.097656 97.140625 C 104.421875 99.246094 107.535156 102.839844 109.117188 107.007812 C 104.863281 108.34375 100.109375 108.117188 95.78125 106.019531 C 91.453125 103.914062 88.339844 100.320312 86.761719 96.148438 " fill-opacity="1" fill-rule="evenodd"/><path fill="#6667bd" d="M 100.875 85.625 C 105.128906 86.957031 109.882812 86.738281 114.207031 84.632812 C 118.535156 82.53125 121.652344 78.933594 123.230469 74.769531 C 118.976562 73.433594 114.222656 73.652344 109.894531 75.757812 C 105.570312 77.855469 102.457031 81.457031 100.875 85.625 " fill-opacity="1" fill-rule="evenodd"/><path fill="#6667bd" d="M 126.875 87.59375 C 131.132812 86.261719 135.882812 86.484375 140.210938 88.585938 C 144.539062 90.691406 147.648438 94.285156 149.230469 98.457031 C 144.976562 99.789062 140.226562 99.566406 135.894531 97.464844 C 131.566406 95.359375 128.460938 91.765625 126.875 87.59375 " fill-opacity="1" fill-rule="evenodd"/><path fill="#6667bd" d="M 130.414062 83.230469 C 132.480469 79.277344 136 76.078125 140.542969 74.507812 C 145.089844 72.929688 149.835938 73.277344 153.902344 75.105469 C 151.839844 79.058594 148.320312 82.261719 143.773438 83.832031 C 139.226562 85.410156 134.480469 85.0625 130.414062 83.230469 " fill-opacity="1" fill-rule="evenodd"/><path fill="#6667bd" d="M 30.917969 97.171875 C 27.382812 99.882812 24.832031 103.902344 24.066406 108.652344 C 23.300781 113.402344 24.457031 118.015625 26.960938 121.707031 C 30.5 118.992188 33.042969 114.972656 33.808594 110.222656 C 34.578125 105.472656 33.421875 100.859375 30.917969 97.171875 " fill-opacity="1" fill-rule="evenodd"/><path fill="#6667bd" d="M 4.03125 137.714844 C 7.9375 135.566406 12.640625 134.84375 17.296875 136.046875 C 21.957031 137.25 25.71875 140.160156 28.097656 143.933594 C 24.1875 146.085938 19.484375 146.808594 14.832031 145.601562 C 10.171875 144.398438 6.40625 141.492188 4.03125 137.714844 " fill-opacity="1" fill-rule="evenodd"/><path fill="#6667bd" d="M 114.355469 145.089844 C 116.421875 141.144531 119.941406 137.9375 124.484375 136.367188 C 129.03125 134.792969 133.773438 135.136719 137.839844 136.96875 C 135.777344 140.917969 132.261719 144.121094 127.710938 145.691406 C 123.164062 147.269531 118.421875 146.925781 114.355469 145.089844 " fill-opacity="1" fill-rule="evenodd"/><path fill="#6667bd" d="M 113.070312 150.804688 C 112.3125 155.195312 113.164062 159.878906 115.824219 163.886719 C 118.484375 167.894531 122.464844 170.503906 126.808594 171.511719 C 127.5625 167.121094 126.710938 162.441406 124.050781 158.425781 C 121.394531 154.421875 117.410156 151.8125 113.070312 150.804688 " fill-opacity="1" fill-rule="evenodd"/><path fill="#6667bd" d="M 129.820312 151.679688 C 132.394531 155.324219 136.308594 158.03125 141.023438 158.980469 C 145.738281 159.933594 150.398438 158.960938 154.183594 156.605469 C 151.613281 152.96875 147.699219 150.257812 142.984375 149.304688 C 138.269531 148.351562 133.609375 149.324219 129.820312 151.679688 " fill-opacity="1" fill-rule="evenodd"/><path fill="#6667bd" d="M 124.671875 109.273438 C 128.136719 112.078125 132.640625 113.621094 137.441406 113.257812 C 142.234375 112.894531 146.453125 110.691406 149.457031 107.394531 C 145.992188 104.589844 141.488281 103.050781 136.691406 103.410156 C 131.894531 103.777344 127.675781 105.980469 124.671875 109.273438 " fill-opacity="1" fill-rule="evenodd"/><path fill="#6667bd" d="M 167.527344 47.03125 C 170.246094 50.570312 174.257812 53.121094 179.007812 53.890625 C 183.757812 54.660156 188.371094 53.511719 192.066406 51.007812 C 189.351562 47.472656 185.335938 44.921875 180.585938 44.144531 C 175.839844 43.378906 171.21875 44.535156 167.527344 47.03125 " fill-opacity="1" fill-rule="evenodd"/><path fill="#6667bd" d="M 1.550781 190.511719 C 2.789062 186.226562 5.601562 182.394531 9.75 179.949219 C 13.890625 177.507812 18.609375 176.902344 22.960938 177.890625 C 21.71875 182.175781 18.902344 186.011719 14.757812 188.453125 C 10.617188 190.890625 5.894531 191.496094 1.550781 190.511719 " fill-opacity="1" fill-rule="evenodd"/><path fill="#6667bd" d="M 89.699219 165.742188 C 90.375 170.152344 92.664062 174.316406 96.460938 177.277344 C 100.253906 180.238281 104.851562 181.453125 109.289062 181.035156 C 108.617188 176.625 106.324219 172.457031 102.535156 169.496094 C 98.742188 166.539062 94.136719 165.328125 89.699219 165.742188 " fill-opacity="1" fill-rule="evenodd"/><path fill="#6667bd" d="M 62.425781 45.078125 C 58.890625 47.792969 56.34375 51.8125 55.578125 56.5625 C 54.808594 61.308594 55.964844 65.925781 58.46875 69.613281 C 62.007812 66.898438 64.554688 62.878906 65.320312 58.132812 C 66.085938 53.382812 64.929688 48.769531 62.425781 45.078125 " fill-opacity="1" fill-rule="evenodd"/><path fill="#6667bd" d="M 28.648438 85.492188 C 33.070312 86.070312 37.710938 85.035156 41.609375 82.21875 C 45.511719 79.398438 47.957031 75.320312 48.792969 70.9375 C 44.375 70.359375 39.734375 71.398438 35.832031 74.214844 C 31.933594 77.03125 29.484375 81.113281 28.648438 85.492188 " fill-opacity="1" fill-rule="evenodd"/></g></g></g></g><g fill="#412269" fill-opacity="1"><g transform="translate(158.824541, 216.061538)"><g><path d="M 22.234375 -10.90625 C 22.367188 -9.988281 22.429688 -9.085938 22.421875 -8.203125 C 22.410156 -7.316406 22.359375 -6.445312 22.265625 -5.59375 C 21.703125 -4.082031 20.878906 -2.898438 19.796875 -2.046875 C 18.710938 -1.191406 17.441406 -0.523438 15.984375 -0.046875 C 15.617188 -0.015625 15.226562 -0.00390625 14.8125 -0.015625 C 14.394531 -0.0351562 13.988281 -0.113281 13.59375 -0.25 C 12.96875 -0.476562 12.328125 -0.59375 11.671875 -0.59375 C 11.015625 -0.59375 10.359375 -0.566406 9.703125 -0.515625 C 8.679688 -0.453125 7.671875 -0.457031 6.671875 -0.53125 C 5.671875 -0.601562 4.660156 -0.679688 3.640625 -0.765625 C 3.609375 -0.765625 3.5625 -0.785156 3.5 -0.828125 C 3.445312 -0.867188 3.363281 -0.9375 3.25 -1.03125 C 3.21875 -1.144531 3.164062 -1.28125 3.09375 -1.4375 C 3.03125 -1.59375 3 -1.738281 3 -1.875 C 2.96875 -2.90625 2.953125 -3.925781 2.953125 -4.9375 C 2.953125 -5.945312 2.953125 -6.953125 2.953125 -7.953125 C 2.921875 -8.429688 2.90625 -8.90625 2.90625 -9.375 C 2.90625 -9.851562 2.820312 -10.332031 2.65625 -10.8125 C 2.59375 -10.988281 2.601562 -11.195312 2.6875 -11.4375 C 2.78125 -11.675781 2.828125 -11.910156 2.828125 -12.140625 C 2.796875 -12.398438 2.726562 -12.632812 2.625 -12.84375 C 2.53125 -13.0625 2.484375 -13.285156 2.484375 -13.515625 C 2.453125 -13.941406 2.425781 -14.367188 2.40625 -14.796875 C 2.394531 -15.222656 2.445312 -15.617188 2.5625 -15.984375 C 2.820312 -16.816406 2.941406 -17.644531 2.921875 -18.46875 C 2.910156 -19.289062 2.90625 -20.117188 2.90625 -20.953125 C 2.90625 -21.265625 2.878906 -21.488281 2.828125 -21.625 C 2.566406 -22.144531 2.425781 -22.664062 2.40625 -23.1875 C 2.394531 -23.71875 2.390625 -24.253906 2.390625 -24.796875 C 2.390625 -25.046875 2.390625 -25.285156 2.390625 -25.515625 C 2.390625 -25.742188 2.390625 -25.988281 2.390625 -26.25 C 2.648438 -26.789062 2.894531 -27.335938 3.125 -27.890625 C 3.351562 -28.453125 3.59375 -29.015625 3.84375 -29.578125 C 4.1875 -29.773438 4.484375 -29.894531 4.734375 -29.9375 C 4.992188 -29.988281 5.238281 -30.015625 5.46875 -30.015625 C 7.0625 -29.984375 8.601562 -29.9375 10.09375 -29.875 C 10.519531 -29.875 10.945312 -29.875 11.375 -29.875 C 11.800781 -29.875 12.195312 -29.804688 12.5625 -29.671875 C 13.363281 -29.410156 14.179688 -29.207031 15.015625 -29.0625 C 15.859375 -28.925781 16.664062 -28.585938 17.4375 -28.046875 C 17.863281 -27.671875 18.3125 -27.257812 18.78125 -26.8125 C 19.257812 -26.375 19.679688 -25.828125 20.046875 -25.171875 C 20.128906 -24.609375 20.222656 -24 20.328125 -23.34375 C 20.429688 -22.6875 20.550781 -21.957031 20.6875 -21.15625 C 20.65625 -21.019531 20.597656 -20.820312 20.515625 -20.5625 C 20.429688 -20.300781 20.363281 -20.03125 20.3125 -19.75 C 20.25 -19.46875 20.207031 -19.175781 20.1875 -18.875 C 20.175781 -18.570312 20.101562 -18.265625 19.96875 -17.953125 C 19.820312 -17.671875 19.613281 -17.398438 19.34375 -17.140625 C 19.070312 -16.890625 18.910156 -16.5625 18.859375 -16.15625 C 19.054688 -15.675781 19.359375 -15.269531 19.765625 -14.9375 C 20.179688 -14.613281 20.519531 -14.207031 20.78125 -13.71875 C 21.007812 -13.238281 21.242188 -12.757812 21.484375 -12.28125 C 21.722656 -11.8125 21.972656 -11.351562 22.234375 -10.90625 Z M 6.75 -25.265625 C 6.613281 -24.578125 6.570312 -23.910156 6.625 -23.265625 C 6.6875 -22.628906 6.71875 -22 6.71875 -21.375 C 6.851562 -21 6.96875 -20.640625 7.0625 -20.296875 C 7.164062 -19.960938 7.332031 -19.664062 7.5625 -19.40625 C 9.59375 -19.15625 11.335938 -19.035156 12.796875 -19.046875 C 14.265625 -19.054688 15.285156 -19.21875 15.859375 -19.53125 C 15.941406 -19.644531 16.039062 -19.785156 16.15625 -19.953125 C 16.269531 -20.128906 16.367188 -20.289062 16.453125 -20.4375 C 16.453125 -20.914062 16.453125 -21.363281 16.453125 -21.78125 C 16.453125 -22.195312 16.453125 -22.5625 16.453125 -22.875 C 16.285156 -23.300781 16.078125 -23.65625 15.828125 -23.9375 C 15.585938 -24.226562 15.3125 -24.472656 15 -24.671875 C 14.550781 -24.804688 14.085938 -24.945312 13.609375 -25.09375 C 13.140625 -25.238281 12.632812 -25.394531 12.09375 -25.5625 C 11.4375 -25.59375 10.722656 -25.617188 9.953125 -25.640625 C 9.191406 -25.671875 8.425781 -25.6875 7.65625 -25.6875 C 7.507812 -25.6875 7.359375 -25.632812 7.203125 -25.53125 C 7.046875 -25.4375 6.894531 -25.347656 6.75 -25.265625 Z M 17.875 -5.984375 C 17.988281 -6.359375 18.113281 -6.765625 18.25 -7.203125 C 18.394531 -7.640625 18.523438 -8.0625 18.640625 -8.46875 C 18.492188 -8.945312 18.34375 -9.414062 18.1875 -9.875 C 18.03125 -10.332031 17.878906 -10.800781 17.734375 -11.28125 C 17.285156 -11.707031 16.820312 -12.148438 16.34375 -12.609375 C 15.875 -13.066406 15.414062 -13.507812 14.96875 -13.9375 C 14.476562 -14.082031 14.007812 -14.222656 13.5625 -14.359375 C 13.125 -14.503906 12.691406 -14.632812 12.265625 -14.75 C 12.015625 -14.664062 11.765625 -14.585938 11.515625 -14.515625 C 11.273438 -14.441406 11 -14.363281 10.6875 -14.28125 C 10.226562 -14.28125 9.742188 -14.28125 9.234375 -14.28125 C 8.722656 -14.28125 8.195312 -14.28125 7.65625 -14.28125 C 7.507812 -14.25 7.359375 -14.179688 7.203125 -14.078125 C 7.046875 -13.984375 6.882812 -13.894531 6.71875 -13.8125 C 6.71875 -12.550781 6.71875 -11.296875 6.71875 -10.046875 C 6.71875 -8.796875 6.71875 -7.554688 6.71875 -6.328125 C 6.71875 -6.160156 6.722656 -5.988281 6.734375 -5.8125 C 6.742188 -5.644531 6.765625 -5.488281 6.796875 -5.34375 C 6.992188 -4.851562 7.363281 -4.507812 7.90625 -4.3125 C 8.5625 -4.507812 9.226562 -4.648438 9.90625 -4.734375 C 10.59375 -4.828125 11.28125 -4.703125 11.96875 -4.359375 C 12.457031 -4.328125 12.9375 -4.296875 13.40625 -4.265625 C 13.875 -4.242188 14.335938 -4.21875 14.796875 -4.1875 C 14.910156 -4.1875 15.019531 -4.191406 15.125 -4.203125 C 15.238281 -4.222656 15.367188 -4.25 15.515625 -4.28125 C 15.910156 -4.476562 16.320312 -4.691406 16.75 -4.921875 C 17.1875 -5.148438 17.5625 -5.503906 17.875 -5.984375 Z M 17.875 -5.984375 "/></g></g></g><g fill="#412269" fill-opacity="1"><g transform="translate(188.360455, 216.061538)"><g><path d="M 26.9375 -14.578125 C 27.132812 -14.203125 27.222656 -13.863281 27.203125 -13.5625 C 27.191406 -13.269531 27.1875 -13.007812 27.1875 -12.78125 C 27.101562 -12.238281 26.9375 -11.738281 26.6875 -11.28125 C 26.445312 -10.832031 26.226562 -10.367188 26.03125 -9.890625 C 25.832031 -9.421875 25.75 -8.914062 25.78125 -8.375 C 25.40625 -7.351562 24.890625 -6.414062 24.234375 -5.5625 C 23.578125 -4.707031 23.109375 -3.835938 22.828125 -2.953125 C 21.773438 -2.148438 20.765625 -1.59375 19.796875 -1.28125 C 19.304688 -1.132812 18.8125 -0.945312 18.3125 -0.71875 C 17.8125 -0.5 17.28125 -0.257812 16.71875 0 C 16.519531 0 16.285156 -0.00390625 16.015625 -0.015625 C 15.742188 -0.0351562 15.460938 -0.03125 15.171875 0 C 14.546875 0.03125 13.785156 -0.0546875 12.890625 -0.265625 C 11.992188 -0.484375 11.109375 -0.773438 10.234375 -1.140625 C 9.367188 -1.515625 8.648438 -1.914062 8.078125 -2.34375 C 7.648438 -2.6875 7.257812 -3.039062 6.90625 -3.40625 C 6.550781 -3.78125 6.203125 -4.171875 5.859375 -4.578125 C 5.515625 -4.972656 5.195312 -5.375 4.90625 -5.78125 C 4.625 -6.195312 4.359375 -6.578125 4.109375 -6.921875 C 3.847656 -7.492188 3.617188 -8.019531 3.421875 -8.5 C 3.222656 -8.988281 3.007812 -9.460938 2.78125 -9.921875 C 2.582031 -10.347656 2.378906 -10.773438 2.171875 -11.203125 C 1.972656 -11.628906 1.757812 -12.082031 1.53125 -12.5625 C 1.507812 -13.25 1.488281 -13.960938 1.46875 -14.703125 C 1.457031 -15.441406 1.4375 -16.195312 1.40625 -16.96875 C 1.382812 -17.90625 1.484375 -18.816406 1.703125 -19.703125 C 1.929688 -20.585938 2.234375 -21.457031 2.609375 -22.3125 C 2.722656 -22.507812 2.835938 -22.726562 2.953125 -22.96875 C 3.066406 -23.21875 3.207031 -23.515625 3.375 -23.859375 C 3.601562 -24.054688 3.878906 -24.300781 4.203125 -24.59375 C 4.535156 -24.894531 4.859375 -25.21875 5.171875 -25.5625 C 5.515625 -25.875 5.84375 -26.191406 6.15625 -26.515625 C 6.46875 -26.847656 6.765625 -27.171875 7.046875 -27.484375 C 7.367188 -27.597656 7.671875 -27.695312 7.953125 -27.78125 C 8.234375 -27.875 8.519531 -27.960938 8.8125 -28.046875 C 9.007812 -28.296875 9.207031 -28.5625 9.40625 -28.84375 C 9.601562 -29.132812 9.929688 -29.253906 10.390625 -29.203125 C 11.160156 -29.453125 11.75 -29.632812 12.15625 -29.75 C 12.570312 -29.863281 12.953125 -29.9375 13.296875 -29.96875 C 13.640625 -30 14.109375 -30 14.703125 -29.96875 C 15.078125 -29.9375 15.429688 -29.90625 15.765625 -29.875 C 16.109375 -29.851562 16.453125 -29.84375 16.796875 -29.84375 C 17.960938 -29.320312 19.148438 -28.832031 20.359375 -28.375 C 21.578125 -27.925781 22.785156 -27.332031 23.984375 -26.59375 C 24.148438 -26.394531 24.367188 -26.148438 24.640625 -25.859375 C 24.910156 -25.578125 25.203125 -25.28125 25.515625 -24.96875 C 25.660156 -24.570312 25.816406 -24.15625 25.984375 -23.71875 C 26.160156 -23.289062 26.332031 -22.851562 26.5 -22.40625 C 26.5625 -21.769531 26.597656 -21.140625 26.609375 -20.515625 C 26.628906 -19.890625 26.59375 -19.265625 26.5 -18.640625 C 26.300781 -18.328125 26.066406 -18.160156 25.796875 -18.140625 C 25.523438 -18.128906 25.25 -18.140625 24.96875 -18.171875 C 24.738281 -18.484375 24.5 -18.800781 24.25 -19.125 C 24.007812 -19.457031 23.78125 -19.78125 23.5625 -20.09375 C 23.351562 -20.40625 23.222656 -20.71875 23.171875 -21.03125 C 23.054688 -21.601562 22.832031 -22.085938 22.5 -22.484375 C 22.175781 -22.878906 21.785156 -23.207031 21.328125 -23.46875 C 20.617188 -23.84375 19.898438 -24.210938 19.171875 -24.578125 C 18.441406 -24.953125 17.707031 -25.28125 16.96875 -25.5625 C 16.539062 -25.738281 16.097656 -25.859375 15.640625 -25.921875 C 15.191406 -25.992188 14.738281 -26.085938 14.28125 -26.203125 C 13.65625 -26.003906 12.992188 -25.796875 12.296875 -25.578125 C 11.597656 -25.367188 10.832031 -25.132812 10 -24.875 C 9.488281 -24.425781 8.941406 -23.90625 8.359375 -23.3125 C 7.773438 -22.726562 7.210938 -22.15625 6.671875 -21.59375 C 6.359375 -21.019531 6.113281 -20.453125 5.9375 -19.890625 C 5.769531 -19.335938 5.585938 -18.78125 5.390625 -18.21875 C 4.929688 -16.757812 4.929688 -15.289062 5.390625 -13.8125 C 5.523438 -13.382812 5.664062 -12.945312 5.8125 -12.5 C 5.957031 -12.0625 6.144531 -11.644531 6.375 -11.25 C 6.601562 -10.90625 6.800781 -10.539062 6.96875 -10.15625 C 7.132812 -9.769531 7.320312 -9.378906 7.53125 -8.984375 C 7.695312 -8.753906 7.898438 -8.515625 8.140625 -8.265625 C 8.378906 -8.023438 8.585938 -7.765625 8.765625 -7.484375 C 9.222656 -6.742188 9.769531 -6.144531 10.40625 -5.6875 C 11.050781 -5.226562 11.769531 -4.859375 12.5625 -4.578125 C 12.675781 -4.546875 12.78125 -4.5 12.875 -4.4375 C 12.976562 -4.382812 13.085938 -4.332031 13.203125 -4.28125 C 13.773438 -4.1875 14.351562 -4.125 14.9375 -4.09375 C 15.519531 -4.070312 16.128906 -4.117188 16.765625 -4.234375 C 16.867188 -4.265625 16.992188 -4.320312 17.140625 -4.40625 C 17.285156 -4.488281 17.441406 -4.554688 17.609375 -4.609375 C 18.328125 -4.816406 18.941406 -5.140625 19.453125 -5.578125 C 19.960938 -6.015625 20.390625 -6.550781 20.734375 -7.1875 C 21.015625 -7.726562 21.328125 -8.210938 21.671875 -8.640625 C 22.015625 -9.066406 22.375 -9.460938 22.75 -9.828125 C 22.914062 -10.253906 23.082031 -10.660156 23.25 -11.046875 C 23.425781 -11.429688 23.570312 -11.8125 23.6875 -12.1875 C 23.800781 -12.53125 23.882812 -12.863281 23.9375 -13.1875 C 24 -13.519531 24.097656 -13.851562 24.234375 -14.1875 C 24.378906 -14.5625 24.476562 -14.945312 24.53125 -15.34375 C 24.59375 -15.75 24.664062 -16.164062 24.75 -16.59375 C 24.925781 -16.445312 25.082031 -16.320312 25.21875 -16.21875 C 25.363281 -16.125 25.507812 -16.019531 25.65625 -15.90625 C 25.90625 -15.644531 26.132812 -15.398438 26.34375 -15.171875 C 26.5625 -14.941406 26.757812 -14.742188 26.9375 -14.578125 Z M 26.9375 -14.578125 "/></g></g></g><g fill="#412269" fill-opacity="1"><g transform="translate(222.640358, 216.061538)"><g><path d="M 22.140625 -17.609375 C 22.203125 -17.640625 22.257812 -17.660156 22.3125 -17.671875 C 22.375 -17.691406 22.429688 -17.710938 22.484375 -17.734375 C 22.515625 -17.765625 22.539062 -17.800781 22.5625 -17.84375 C 22.59375 -17.882812 22.625 -17.9375 22.65625 -18 C 22.425781 -18.164062 22.164062 -18.296875 21.875 -18.390625 C 21.59375 -18.492188 21.382812 -18.691406 21.25 -18.984375 C 20.957031 -19.554688 20.597656 -20.078125 20.171875 -20.546875 C 19.742188 -21.015625 19.304688 -21.476562 18.859375 -21.9375 C 18.910156 -22.132812 18.960938 -22.3125 19.015625 -22.46875 C 19.078125 -22.625 19.132812 -22.785156 19.1875 -22.953125 C 19.132812 -23.035156 19.085938 -23.128906 19.046875 -23.234375 C 19.003906 -23.335938 18.953125 -23.445312 18.890625 -23.5625 C 18.984375 -23.613281 19.070312 -23.675781 19.15625 -23.75 C 19.238281 -23.820312 19.320312 -23.867188 19.40625 -23.890625 C 19.664062 -24.066406 19.796875 -24.242188 19.796875 -24.421875 C 19.796875 -24.609375 19.664062 -24.773438 19.40625 -24.921875 C 19.257812 -25.003906 19.101562 -25.066406 18.9375 -25.109375 C 18.769531 -25.148438 18.597656 -25.203125 18.421875 -25.265625 C 18.304688 -25.097656 18.207031 -24.929688 18.125 -24.765625 C 18.039062 -24.609375 17.941406 -24.460938 17.828125 -24.328125 C 17.710938 -24.210938 17.578125 -24.117188 17.421875 -24.046875 C 17.265625 -23.972656 17.097656 -23.894531 16.921875 -23.8125 C 16.722656 -23.925781 16.515625 -24.039062 16.296875 -24.15625 C 16.085938 -24.269531 15.882812 -24.367188 15.6875 -24.453125 C 15.226562 -24.710938 14.753906 -24.945312 14.265625 -25.15625 C 13.785156 -25.375 13.273438 -25.46875 12.734375 -25.4375 C 11.828125 -25.71875 10.910156 -25.882812 9.984375 -25.9375 C 9.054688 -26 8.132812 -25.988281 7.21875 -25.90625 C 7.132812 -25.789062 7.039062 -25.691406 6.9375 -25.609375 C 6.84375 -25.523438 6.796875 -25.4375 6.796875 -25.34375 C 6.765625 -24.832031 6.742188 -24.3125 6.734375 -23.78125 C 6.722656 -23.257812 6.726562 -22.726562 6.75 -22.1875 C 6.8125 -21.019531 6.832031 -19.847656 6.8125 -18.671875 C 6.800781 -17.503906 6.78125 -16.335938 6.75 -15.171875 C 6.726562 -13.660156 6.707031 -12.144531 6.6875 -10.625 C 6.675781 -9.101562 6.65625 -7.570312 6.625 -6.03125 C 6.625 -5.800781 6.644531 -5.570312 6.6875 -5.34375 C 6.726562 -5.113281 6.75 -4.867188 6.75 -4.609375 C 6.945312 -4.523438 7.117188 -4.441406 7.265625 -4.359375 C 7.410156 -4.273438 7.566406 -4.234375 7.734375 -4.234375 C 8.023438 -4.203125 8.328125 -4.1875 8.640625 -4.1875 C 8.953125 -4.1875 9.222656 -4.242188 9.453125 -4.359375 C 10.191406 -4.640625 10.929688 -4.816406 11.671875 -4.890625 C 12.410156 -4.960938 13.164062 -4.972656 13.9375 -4.921875 C 14.050781 -4.921875 14.15625 -4.921875 14.25 -4.921875 C 14.351562 -4.921875 14.378906 -4.921875 14.328125 -4.921875 C 14.835938 -5.117188 15.304688 -5.296875 15.734375 -5.453125 C 16.160156 -5.609375 16.585938 -5.769531 17.015625 -5.9375 C 18.066406 -6.59375 18.96875 -7.429688 19.71875 -8.453125 C 20.476562 -9.484375 21.242188 -10.539062 22.015625 -11.625 C 22.046875 -11.882812 22.070312 -12.15625 22.09375 -12.4375 C 22.125 -12.726562 22.179688 -13.015625 22.265625 -13.296875 C 22.296875 -13.523438 22.296875 -13.753906 22.265625 -13.984375 C 22.242188 -14.210938 22.347656 -14.425781 22.578125 -14.625 C 22.773438 -14.757812 22.988281 -14.8125 23.21875 -14.78125 C 23.445312 -14.757812 23.6875 -14.75 23.9375 -14.75 C 24.050781 -14.550781 24.15625 -14.347656 24.25 -14.140625 C 24.351562 -13.941406 24.476562 -13.757812 24.625 -13.59375 C 24.738281 -13.394531 24.875 -13.203125 25.03125 -13.015625 C 25.1875 -12.828125 25.347656 -12.617188 25.515625 -12.390625 C 25.347656 -12.253906 25.1875 -12.113281 25.03125 -11.96875 C 24.875 -11.820312 24.707031 -11.691406 24.53125 -11.578125 C 24.5625 -11.523438 24.59375 -11.46875 24.625 -11.40625 C 24.65625 -11.351562 24.679688 -11.300781 24.703125 -11.25 C 25.109375 -10.726562 25.179688 -10.1875 24.921875 -9.625 C 24.867188 -9.445312 24.769531 -9.285156 24.625 -9.140625 C 24.476562 -9.003906 24.40625 -8.863281 24.40625 -8.71875 C 24.351562 -8.09375 24.160156 -7.546875 23.828125 -7.078125 C 23.503906 -6.609375 23.128906 -6.160156 22.703125 -5.734375 C 22.328125 -5.359375 21.941406 -4.992188 21.546875 -4.640625 C 21.148438 -4.285156 20.765625 -3.9375 20.390625 -3.59375 C 19.847656 -3.101562 19.269531 -2.703125 18.65625 -2.390625 C 18.039062 -2.078125 17.378906 -1.878906 16.671875 -1.796875 C 16.472656 -1.648438 16.28125 -1.503906 16.09375 -1.359375 C 15.90625 -1.222656 15.726562 -1.082031 15.5625 -0.9375 C 15.445312 -0.96875 15.332031 -1.003906 15.21875 -1.046875 C 15.101562 -1.085938 14.988281 -1.125 14.875 -1.15625 C 14.820312 -1.125 14.765625 -1.097656 14.703125 -1.078125 C 14.648438 -1.066406 14.59375 -1.0625 14.53125 -1.0625 C 14.070312 -0.945312 13.644531 -0.769531 13.25 -0.53125 C 12.851562 -0.289062 12.425781 -0.140625 11.96875 -0.078125 C 11.425781 0.0234375 10.890625 0.046875 10.359375 -0.015625 C 9.835938 -0.0859375 9.320312 -0.0976562 8.8125 -0.046875 C 8.695312 -0.015625 8.570312 -0.00390625 8.4375 -0.015625 C 8.3125 -0.0351562 8.207031 -0.0703125 8.125 -0.125 C 7.582031 -0.4375 7.007812 -0.597656 6.40625 -0.609375 C 5.8125 -0.628906 5.171875 -0.679688 4.484375 -0.765625 C 4.140625 -1.023438 3.832031 -1.269531 3.5625 -1.5 C 3.289062 -1.726562 3.03125 -1.941406 2.78125 -2.140625 C 2.71875 -2.273438 2.664062 -2.40625 2.625 -2.53125 C 2.582031 -2.664062 2.5625 -2.773438 2.5625 -2.859375 C 2.5625 -4.679688 2.566406 -6.503906 2.578125 -8.328125 C 2.597656 -10.160156 2.625 -11.972656 2.65625 -13.765625 C 2.65625 -13.878906 2.660156 -14 2.671875 -14.125 C 2.679688 -14.257812 2.703125 -14.367188 2.734375 -14.453125 C 3.046875 -15.242188 3.179688 -16.050781 3.140625 -16.875 C 3.097656 -17.707031 3.078125 -18.523438 3.078125 -19.328125 C 3.109375 -19.492188 3.09375 -19.660156 3.03125 -19.828125 C 2.976562 -20.003906 2.921875 -20.175781 2.859375 -20.34375 C 2.835938 -20.457031 2.796875 -20.570312 2.734375 -20.6875 C 2.679688 -20.800781 2.65625 -20.914062 2.65625 -21.03125 C 2.625 -22.144531 2.585938 -23.25 2.546875 -24.34375 C 2.503906 -25.4375 2.507812 -26.539062 2.5625 -27.65625 C 2.988281 -27.945312 3.382812 -28.234375 3.75 -28.515625 C 4.125 -28.796875 4.46875 -29.050781 4.78125 -29.28125 C 5.238281 -29.457031 5.675781 -29.550781 6.09375 -29.5625 C 6.507812 -29.570312 6.929688 -29.59375 7.359375 -29.625 C 7.867188 -29.6875 8.382812 -29.703125 8.90625 -29.671875 C 9.4375 -29.640625 9.957031 -29.738281 10.46875 -29.96875 C 10.5625 -30 10.660156 -29.984375 10.765625 -29.921875 C 11.285156 -29.691406 11.816406 -29.578125 12.359375 -29.578125 C 12.898438 -29.578125 13.441406 -29.507812 13.984375 -29.375 C 14.578125 -28.96875 15.226562 -28.648438 15.9375 -28.421875 C 16.65625 -28.203125 17.3125 -27.832031 17.90625 -27.3125 C 18.445312 -26.863281 19.007812 -26.445312 19.59375 -26.0625 C 20.1875 -25.675781 20.765625 -25.296875 21.328125 -24.921875 C 21.472656 -24.578125 21.640625 -24.253906 21.828125 -23.953125 C 22.015625 -23.660156 22.117188 -23.328125 22.140625 -22.953125 C 21.941406 -22.640625 21.757812 -22.34375 21.59375 -22.0625 C 21.675781 -21.65625 21.753906 -21.398438 21.828125 -21.296875 C 21.898438 -21.203125 22.0625 -21.144531 22.3125 -21.125 C 22.539062 -21.09375 22.769531 -21.066406 23 -21.046875 C 23.226562 -21.035156 23.457031 -21.015625 23.6875 -20.984375 C 23.738281 -20.960938 23.789062 -20.925781 23.84375 -20.875 C 23.90625 -20.832031 23.953125 -20.800781 23.984375 -20.78125 C 24.265625 -20.257812 24.539062 -19.742188 24.8125 -19.234375 C 25.082031 -18.722656 25.363281 -18.210938 25.65625 -17.703125 C 25.769531 -17.503906 25.695312 -17.300781 25.4375 -17.09375 C 25.257812 -17.15625 25.09375 -17.222656 24.9375 -17.296875 C 24.78125 -17.367188 24.632812 -17.445312 24.5 -17.53125 C 24.1875 -17.414062 23.863281 -17.300781 23.53125 -17.1875 C 23.207031 -17.070312 22.875 -16.972656 22.53125 -16.890625 C 22.445312 -16.890625 22.335938 -16.914062 22.203125 -16.96875 C 22.078125 -17.03125 21.988281 -17.085938 21.9375 -17.140625 C 21.757812 -17.316406 21.828125 -17.472656 22.140625 -17.609375 Z M 16.25 -4.609375 L 16.25 -4.65625 C 15.988281 -4.375 15.859375 -4.085938 15.859375 -3.796875 C 15.859375 -3.515625 15.875 -3.21875 15.90625 -2.90625 C 16.25 -2.96875 16.460938 -3.15625 16.546875 -3.46875 C 16.578125 -3.664062 16.578125 -3.867188 16.546875 -4.078125 C 16.515625 -4.296875 16.414062 -4.472656 16.25 -4.609375 Z M 15.8125 -2.78125 C 15.582031 -2.78125 15.441406 -2.691406 15.390625 -2.515625 C 15.390625 -2.515625 15.414062 -2.476562 15.46875 -2.40625 C 15.53125 -2.34375 15.5625 -2.320312 15.5625 -2.34375 C 15.726562 -2.40625 15.8125 -2.550781 15.8125 -2.78125 Z M 16.203125 -25.5625 L 16.328125 -25.734375 L 16.109375 -25.734375 Z M 16.203125 -25.5625 "/></g></g></g><g fill="#412269" fill-opacity="1"><g transform="translate(255.039768, 216.061538)"><g><path d="M 25.015625 -27.140625 C 25.015625 -26.828125 25.023438 -26.515625 25.046875 -26.203125 C 25.078125 -25.890625 25.050781 -25.59375 24.96875 -25.3125 C 24.769531 -24.820312 24.644531 -24.332031 24.59375 -23.84375 C 24.550781 -23.363281 24.519531 -22.882812 24.5 -22.40625 C 24.5 -21.832031 24.484375 -21.265625 24.453125 -20.703125 C 24.421875 -20.148438 24.394531 -19.59375 24.375 -19.03125 C 24.34375 -18.800781 24.332031 -18.554688 24.34375 -18.296875 C 24.363281 -18.035156 24.328125 -17.78125 24.234375 -17.53125 C 23.921875 -16.5 23.75 -15.460938 23.71875 -14.421875 C 23.695312 -13.390625 23.671875 -12.34375 23.640625 -11.28125 C 23.609375 -10.289062 23.585938 -9.296875 23.578125 -8.296875 C 23.566406 -7.296875 23.5625 -6.296875 23.5625 -5.296875 C 23.53125 -4.671875 23.515625 -4.050781 23.515625 -3.4375 C 23.515625 -2.820312 23.5 -2.203125 23.46875 -1.578125 C 23.4375 -1.066406 23.207031 -0.625 22.78125 -0.25 C 22.101562 -0.132812 21.578125 -0.0546875 21.203125 -0.015625 C 20.828125 0.0234375 20.503906 0.00390625 20.234375 -0.078125 C 19.972656 -0.171875 19.65625 -0.332031 19.28125 -0.5625 C 19.132812 -1.207031 19.082031 -1.875 19.125 -2.5625 C 19.164062 -3.25 19.1875 -3.929688 19.1875 -4.609375 C 19.164062 -5.210938 19.160156 -5.828125 19.171875 -6.453125 C 19.179688 -7.078125 19.175781 -7.707031 19.15625 -8.34375 C 19.125 -9.019531 19.132812 -9.691406 19.1875 -10.359375 C 19.25 -11.035156 19.238281 -11.6875 19.15625 -12.3125 C 19.007812 -12.425781 18.882812 -12.53125 18.78125 -12.625 C 18.6875 -12.726562 18.597656 -12.78125 18.515625 -12.78125 C 17.679688 -12.8125 16.863281 -12.832031 16.0625 -12.84375 C 15.269531 -12.863281 14.460938 -12.875 13.640625 -12.875 C 13.410156 -12.875 13.160156 -12.863281 12.890625 -12.84375 C 12.617188 -12.832031 12.382812 -12.867188 12.1875 -12.953125 C 11.445312 -13.234375 10.703125 -13.378906 9.953125 -13.390625 C 9.210938 -13.410156 8.445312 -13.40625 7.65625 -13.375 C 7.59375 -13.289062 7.519531 -13.210938 7.4375 -13.140625 C 7.351562 -13.066406 7.253906 -12.976562 7.140625 -12.875 C 7.140625 -11.5625 7.128906 -10.25 7.109375 -8.9375 C 7.097656 -7.625 7.09375 -6.3125 7.09375 -5 C 7.125 -3.4375 6.828125 -1.882812 6.203125 -0.34375 C 5.710938 -0.0820312 5.21875 0.0078125 4.71875 -0.0625 C 4.21875 -0.132812 3.726562 -0.1875 3.25 -0.21875 C 3.1875 -0.300781 3.097656 -0.382812 2.984375 -0.46875 C 2.878906 -0.550781 2.828125 -0.648438 2.828125 -0.765625 C 2.710938 -1.421875 2.65625 -2.035156 2.65625 -2.609375 C 2.675781 -6.285156 2.703125 -9.953125 2.734375 -13.609375 C 2.765625 -17.273438 2.796875 -20.945312 2.828125 -24.625 C 2.828125 -25.195312 2.832031 -25.757812 2.84375 -26.3125 C 2.851562 -26.863281 2.875 -27.425781 2.90625 -28 C 3.050781 -28.28125 3.1875 -28.554688 3.3125 -28.828125 C 3.4375 -29.097656 3.570312 -29.363281 3.71875 -29.625 C 4.257812 -29.820312 4.703125 -29.941406 5.046875 -29.984375 C 5.390625 -30.023438 5.71875 -29.945312 6.03125 -29.75 C 6.34375 -29.550781 6.738281 -29.222656 7.21875 -28.765625 C 7.21875 -27.023438 7.21875 -25.316406 7.21875 -23.640625 C 7.21875 -21.960938 7.21875 -20.3125 7.21875 -18.6875 C 7.332031 -18.457031 7.453125 -18.273438 7.578125 -18.140625 C 7.710938 -18.015625 7.878906 -17.9375 8.078125 -17.90625 C 8.222656 -17.90625 8.351562 -17.898438 8.46875 -17.890625 C 8.582031 -17.878906 8.707031 -17.875 8.84375 -17.875 C 9.382812 -17.875 9.921875 -17.765625 10.453125 -17.546875 C 10.984375 -17.335938 11.53125 -17.242188 12.09375 -17.265625 C 13.238281 -17.296875 14.363281 -17.3125 15.46875 -17.3125 C 16.582031 -17.3125 17.695312 -17.328125 18.8125 -17.359375 C 18.925781 -17.359375 19.039062 -17.382812 19.15625 -17.4375 C 19.269531 -17.5 19.394531 -17.539062 19.53125 -17.5625 C 19.820312 -17.9375 19.957031 -18.335938 19.9375 -18.765625 C 19.925781 -19.191406 19.9375 -19.617188 19.96875 -20.046875 C 20.019531 -20.472656 20.050781 -20.898438 20.0625 -21.328125 C 20.082031 -21.753906 20.175781 -22.179688 20.34375 -22.609375 C 20.539062 -23.015625 20.625 -23.4375 20.59375 -23.875 C 20.570312 -24.3125 20.578125 -24.742188 20.609375 -25.171875 C 20.628906 -25.609375 20.644531 -26.046875 20.65625 -26.484375 C 20.675781 -26.921875 20.6875 -27.34375 20.6875 -27.75 C 20.800781 -28.082031 20.976562 -28.347656 21.21875 -28.546875 C 21.46875 -28.753906 21.75 -28.925781 22.0625 -29.0625 C 22.34375 -29.0625 22.632812 -29.0625 22.9375 -29.0625 C 23.238281 -29.0625 23.53125 -29.0625 23.8125 -29.0625 C 24.1875 -28.8125 24.4375 -28.515625 24.5625 -28.171875 C 24.6875 -27.828125 24.835938 -27.484375 25.015625 -27.140625 Z M 25.015625 -27.140625 "/></g></g></g><g fill="#412269" fill-opacity="1"><g transform="translate(287.610123, 216.061538)"><g><path d="M 6.453125 -10.90625 C 6.453125 -10.332031 6.453125 -9.722656 6.453125 -9.078125 C 6.453125 -8.441406 6.453125 -7.820312 6.453125 -7.21875 C 6.566406 -6.9375 6.671875 -6.660156 6.765625 -6.390625 C 6.867188 -6.117188 6.976562 -5.84375 7.09375 -5.5625 C 7.09375 -4.875 7.09375 -4.179688 7.09375 -3.484375 C 7.09375 -2.785156 7.09375 -2.125 7.09375 -1.5 C 6.84375 -0.5 6.257812 0 5.34375 0 C 4.945312 0 4.554688 -0.00390625 4.171875 -0.015625 C 3.785156 -0.0351562 3.421875 -0.046875 3.078125 -0.046875 C 2.960938 -0.210938 2.851562 -0.351562 2.75 -0.46875 C 2.65625 -0.582031 2.609375 -0.679688 2.609375 -0.765625 C 2.546875 -1.617188 2.515625 -2.472656 2.515625 -3.328125 C 2.515625 -4.179688 2.6875 -5.023438 3.03125 -5.859375 C 3.113281 -6.085938 3.160156 -6.335938 3.171875 -6.609375 C 3.191406 -6.878906 3.21875 -7.140625 3.25 -7.390625 C 3.25 -7.960938 3.25 -8.554688 3.25 -9.171875 C 3.25 -9.785156 3.25 -10.421875 3.25 -11.078125 C 3.019531 -11.640625 2.832031 -12.09375 2.6875 -12.4375 C 2.664062 -14.863281 2.644531 -17.28125 2.625 -19.6875 C 2.613281 -22.09375 2.59375 -24.460938 2.5625 -26.796875 C 2.738281 -27.253906 2.910156 -27.675781 3.078125 -28.0625 C 3.242188 -28.445312 3.398438 -28.8125 3.546875 -29.15625 C 3.722656 -29.300781 3.878906 -29.429688 4.015625 -29.546875 C 4.160156 -29.660156 4.304688 -29.757812 4.453125 -29.84375 C 4.878906 -29.894531 5.28125 -29.941406 5.65625 -29.984375 C 6.039062 -30.023438 6.421875 -29.945312 6.796875 -29.75 C 6.847656 -29.695312 6.894531 -29.648438 6.9375 -29.609375 C 6.988281 -29.566406 7.023438 -29.515625 7.046875 -29.453125 C 7.078125 -29.304688 7.109375 -29.171875 7.140625 -29.046875 C 7.171875 -28.921875 7.1875 -28.800781 7.1875 -28.6875 C 7.207031 -26.320312 7.21875 -23.957031 7.21875 -21.59375 C 7.21875 -19.226562 7.21875 -16.863281 7.21875 -14.5 C 7.21875 -14.15625 7.203125 -13.820312 7.171875 -13.5 C 7.148438 -13.1875 7.125 -12.875 7.09375 -12.5625 C 6.976562 -12.28125 6.867188 -12.007812 6.765625 -11.75 C 6.671875 -11.5 6.566406 -11.21875 6.453125 -10.90625 Z M 6.453125 -10.90625 "/></g></g></g><g fill="#412269" fill-opacity="1"><g transform="translate(175.975614, 274.865217)"><g><path d="M 22.359375 -28.859375 C 22.410156 -28.453125 22.460938 -28.039062 22.515625 -27.625 C 22.578125 -27.21875 22.640625 -26.816406 22.703125 -26.421875 C 22.390625 -25.816406 21.890625 -25.503906 21.203125 -25.484375 C 20.398438 -25.484375 19.609375 -25.484375 18.828125 -25.484375 C 18.046875 -25.484375 17.253906 -25.484375 16.453125 -25.484375 C 16.023438 -25.484375 15.597656 -25.472656 15.171875 -25.453125 C 14.742188 -25.441406 14.316406 -25.421875 13.890625 -25.390625 C 13.804688 -25.191406 13.722656 -25.015625 13.640625 -24.859375 C 13.554688 -24.703125 13.515625 -24.539062 13.515625 -24.375 C 13.515625 -22.96875 13.515625 -21.5625 13.515625 -20.15625 C 13.515625 -18.75 13.515625 -17.347656 13.515625 -15.953125 C 13.484375 -14.609375 13.46875 -13.265625 13.46875 -11.921875 C 13.46875 -10.585938 13.425781 -9.25 13.34375 -7.90625 C 13.3125 -7.28125 13.265625 -6.644531 13.203125 -6 C 13.148438 -5.363281 13.195312 -4.71875 13.34375 -4.0625 C 13.425781 -3.71875 13.453125 -3.359375 13.421875 -2.984375 C 13.390625 -2.617188 13.363281 -2.25 13.34375 -1.875 C 13.28125 -1.363281 12.992188 -0.910156 12.484375 -0.515625 C 12.285156 -0.453125 12.050781 -0.367188 11.78125 -0.265625 C 11.507812 -0.171875 11.226562 -0.0820312 10.9375 0 C 10.6875 -0.144531 10.410156 -0.242188 10.109375 -0.296875 C 9.804688 -0.359375 9.539062 -0.515625 9.3125 -0.765625 C 9.175781 -1.054688 9.109375 -1.347656 9.109375 -1.640625 C 9.109375 -1.941406 9.109375 -2.234375 9.109375 -2.515625 C 9.140625 -5.140625 9.160156 -7.765625 9.171875 -10.390625 C 9.179688 -13.015625 9.1875 -15.632812 9.1875 -18.25 C 9.21875 -19.28125 9.222656 -20.3125 9.203125 -21.34375 C 9.191406 -22.382812 9.175781 -23.421875 9.15625 -24.453125 C 9.15625 -24.617188 9.101562 -24.78125 9 -24.9375 C 8.894531 -25.09375 8.816406 -25.242188 8.765625 -25.390625 C 8.191406 -25.535156 7.625 -25.585938 7.0625 -25.546875 C 6.507812 -25.503906 5.960938 -25.484375 5.421875 -25.484375 C 4.828125 -25.484375 4.222656 -25.472656 3.609375 -25.453125 C 2.992188 -25.441406 2.390625 -25.453125 1.796875 -25.484375 C 1.191406 -25.484375 0.757812 -25.617188 0.5 -25.890625 C 0.25 -26.160156 0.179688 -26.648438 0.296875 -27.359375 C 0.328125 -27.617188 0.363281 -27.867188 0.40625 -28.109375 C 0.445312 -28.347656 0.507812 -28.582031 0.59375 -28.8125 C 0.65625 -28.957031 0.75 -29.09375 0.875 -29.21875 C 1 -29.34375 1.117188 -29.460938 1.234375 -29.578125 C 2.003906 -29.640625 3.046875 -29.691406 4.359375 -29.734375 C 5.671875 -29.773438 7.109375 -29.800781 8.671875 -29.8125 C 10.242188 -29.832031 11.832031 -29.84375 13.4375 -29.84375 C 15.050781 -29.84375 16.582031 -29.832031 18.03125 -29.8125 C 19.488281 -29.800781 20.734375 -29.769531 21.765625 -29.71875 C 21.898438 -29.601562 22.023438 -29.488281 22.140625 -29.375 C 22.253906 -29.257812 22.328125 -29.085938 22.359375 -28.859375 Z M 22.359375 -28.859375 "/></g></g></g><g fill="#412269" fill-opacity="1"><g transform="translate(204.485808, 274.865217)"><g><path d="M 17.828125 -8.34375 C 17.972656 -7.882812 18.179688 -7.445312 18.453125 -7.03125 C 18.722656 -6.613281 18.984375 -6.191406 19.234375 -5.765625 C 19.691406 -5.054688 20.078125 -4.316406 20.390625 -3.546875 C 20.703125 -2.773438 20.914062 -1.960938 21.03125 -1.109375 C 20.976562 -1.054688 20.9375 -1.003906 20.90625 -0.953125 C 20.875 -0.910156 20.832031 -0.878906 20.78125 -0.859375 C 20.664062 -0.742188 20.566406 -0.6875 20.484375 -0.6875 C 19.992188 -0.65625 19.519531 -0.5625 19.0625 -0.40625 C 18.601562 -0.25 18.148438 -0.113281 17.703125 0 C 17.640625 0.03125 17.578125 0.03125 17.515625 0 C 17.460938 -0.03125 17.410156 -0.0546875 17.359375 -0.078125 C 17.097656 -0.367188 16.953125 -0.691406 16.921875 -1.046875 C 16.898438 -1.398438 16.847656 -1.734375 16.765625 -2.046875 C 16.441406 -2.535156 16.140625 -3.015625 15.859375 -3.484375 C 15.578125 -3.953125 15.28125 -4.414062 14.96875 -4.875 C 14.738281 -5.238281 14.519531 -5.609375 14.3125 -5.984375 C 14.113281 -6.359375 13.957031 -6.742188 13.84375 -7.140625 C 13.707031 -7.597656 13.523438 -8.046875 13.296875 -8.484375 C 13.066406 -8.929688 12.867188 -9.378906 12.703125 -9.828125 C 12.523438 -10.234375 12.320312 -10.601562 12.09375 -10.9375 C 11.863281 -11.28125 11.691406 -11.625 11.578125 -11.96875 C 11.378906 -12.03125 11.21875 -12.085938 11.09375 -12.140625 C 10.96875 -12.191406 10.847656 -12.21875 10.734375 -12.21875 C 10.128906 -12.21875 9.523438 -12.210938 8.921875 -12.203125 C 8.328125 -12.191406 7.71875 -12.171875 7.09375 -12.140625 C 7.007812 -11.941406 6.925781 -11.765625 6.84375 -11.609375 C 6.757812 -11.453125 6.71875 -11.285156 6.71875 -11.109375 C 6.6875 -9.773438 6.660156 -8.4375 6.640625 -7.09375 C 6.628906 -5.757812 6.609375 -4.421875 6.578125 -3.078125 C 6.578125 -2.765625 6.570312 -2.457031 6.5625 -2.15625 C 6.550781 -1.851562 6.546875 -1.578125 6.546875 -1.328125 C 6.429688 -1.210938 6.328125 -1.101562 6.234375 -1 C 6.148438 -0.90625 6.066406 -0.816406 5.984375 -0.734375 C 5.441406 -0.640625 4.90625 -0.597656 4.375 -0.609375 C 3.851562 -0.628906 3.320312 -0.695312 2.78125 -0.8125 C 2.71875 -0.894531 2.632812 -0.984375 2.53125 -1.078125 C 2.4375 -1.179688 2.390625 -1.289062 2.390625 -1.40625 C 2.390625 -3.03125 2.390625 -4.671875 2.390625 -6.328125 C 2.390625 -7.984375 2.40625 -9.625 2.4375 -11.25 C 2.4375 -11.582031 2.507812 -11.9375 2.65625 -12.3125 C 2.769531 -12.59375 2.835938 -12.882812 2.859375 -13.1875 C 2.890625 -13.488281 2.90625 -13.796875 2.90625 -14.109375 C 2.851562 -15.335938 2.867188 -16.554688 2.953125 -17.765625 C 3.035156 -18.972656 3.035156 -20.191406 2.953125 -21.421875 C 2.953125 -21.765625 2.953125 -22.117188 2.953125 -22.484375 C 2.953125 -22.859375 3.019531 -23.21875 3.15625 -23.5625 C 3.300781 -23.613281 3.390625 -23.640625 3.421875 -23.640625 C 3.585938 -23.359375 3.753906 -23.050781 3.921875 -22.71875 C 4.097656 -22.394531 4.359375 -22.144531 4.703125 -21.96875 C 4.867188 -22.03125 5.03125 -22.070312 5.1875 -22.09375 C 5.34375 -22.125 5.492188 -22.15625 5.640625 -22.1875 C 5.671875 -22.070312 5.707031 -21.945312 5.75 -21.8125 C 5.789062 -21.6875 5.785156 -21.582031 5.734375 -21.5 C 5.585938 -21.25 5.421875 -21 5.234375 -20.75 C 5.046875 -20.507812 4.867188 -20.273438 4.703125 -20.046875 C 4.785156 -19.617188 4.988281 -19.328125 5.3125 -19.171875 C 5.644531 -19.015625 5.984375 -18.851562 6.328125 -18.6875 C 6.378906 -18.425781 6.445312 -18.148438 6.53125 -17.859375 C 6.625 -17.578125 6.710938 -17.296875 6.796875 -17.015625 C 6.878906 -16.953125 6.96875 -16.878906 7.0625 -16.796875 C 7.164062 -16.710938 7.273438 -16.671875 7.390625 -16.671875 C 7.910156 -16.554688 8.394531 -16.515625 8.84375 -16.546875 C 9.5625 -16.578125 10.289062 -16.601562 11.03125 -16.625 C 11.769531 -16.65625 12.523438 -16.6875 13.296875 -16.71875 C 13.523438 -16.851562 13.78125 -16.984375 14.0625 -17.109375 C 14.351562 -17.242188 14.664062 -17.394531 15 -17.5625 C 15.289062 -17.96875 15.582031 -18.382812 15.875 -18.8125 C 16.175781 -19.238281 16.484375 -19.679688 16.796875 -20.140625 C 16.796875 -20.453125 16.796875 -20.753906 16.796875 -21.046875 C 16.796875 -21.347656 16.796875 -21.644531 16.796875 -21.9375 C 16.628906 -22.25 16.476562 -22.539062 16.34375 -22.8125 C 16.21875 -23.082031 16.085938 -23.332031 15.953125 -23.5625 C 15.515625 -23.875 15.085938 -24.171875 14.671875 -24.453125 C 14.265625 -24.734375 13.832031 -25.03125 13.375 -25.34375 C 12.351562 -25.488281 11.300781 -25.546875 10.21875 -25.515625 C 9.132812 -25.492188 8.050781 -25.453125 6.96875 -25.390625 C 6.394531 -25.359375 5.835938 -25.335938 5.296875 -25.328125 C 4.753906 -25.316406 4.210938 -25.367188 3.671875 -25.484375 C 3.585938 -25.503906 3.503906 -25.566406 3.421875 -25.671875 C 3.335938 -25.773438 3.25 -25.867188 3.15625 -25.953125 C 3.132812 -26.066406 3.113281 -26.191406 3.09375 -26.328125 C 3.082031 -26.472656 3.0625 -26.644531 3.03125 -26.84375 C 3.175781 -27.101562 3.316406 -27.390625 3.453125 -27.703125 C 3.597656 -28.015625 3.726562 -28.328125 3.84375 -28.640625 C 3.90625 -28.703125 3.957031 -28.757812 4 -28.8125 C 4.039062 -28.875 4.085938 -28.914062 4.140625 -28.9375 C 4.546875 -29.050781 4.96875 -29.164062 5.40625 -29.28125 C 5.851562 -29.394531 6.414062 -29.539062 7.09375 -29.71875 C 8.03125 -29.769531 9.082031 -29.804688 10.25 -29.828125 C 11.425781 -29.859375 12.597656 -29.820312 13.765625 -29.71875 C 14.648438 -29.457031 15.441406 -29.082031 16.140625 -28.59375 C 16.835938 -28.113281 17.539062 -27.644531 18.25 -27.1875 C 18.875 -26.789062 19.363281 -26.269531 19.71875 -25.625 C 20.082031 -24.988281 20.363281 -24.3125 20.5625 -23.59375 C 20.675781 -23.113281 20.773438 -22.628906 20.859375 -22.140625 C 20.941406 -21.660156 21.039062 -21.117188 21.15625 -20.515625 C 21.019531 -20.035156 20.882812 -19.582031 20.75 -19.15625 C 20.625 -18.726562 20.488281 -18.300781 20.34375 -17.875 C 20.207031 -17.644531 20.046875 -17.414062 19.859375 -17.1875 C 19.671875 -16.957031 19.503906 -16.703125 19.359375 -16.421875 C 19.046875 -15.816406 18.664062 -15.28125 18.21875 -14.8125 C 17.78125 -14.34375 17.25 -13.953125 16.625 -13.640625 C 16.394531 -13.523438 16.238281 -13.332031 16.15625 -13.0625 C 16.070312 -12.789062 16.070312 -12.554688 16.15625 -12.359375 C 16.445312 -11.703125 16.738281 -11.046875 17.03125 -10.390625 C 17.332031 -9.734375 17.597656 -9.050781 17.828125 -8.34375 Z M 17.828125 -8.34375 "/></g></g></g><g fill="#412269" fill-opacity="1"><g transform="translate(232.782316, 274.865217)"><g><path d="M 19.625 -4.578125 C 19.769531 -4.035156 19.828125 -3.492188 19.796875 -2.953125 C 19.765625 -2.410156 19.734375 -1.851562 19.703125 -1.28125 C 19.535156 -1.195312 19.375 -1.109375 19.21875 -1.015625 C 19.0625 -0.929688 18.894531 -0.890625 18.71875 -0.890625 C 18.0625 -0.835938 17.398438 -0.8125 16.734375 -0.8125 C 16.066406 -0.8125 15.40625 -0.8125 14.75 -0.8125 C 14.320312 -0.78125 13.898438 -0.75 13.484375 -0.71875 C 13.078125 -0.695312 12.671875 -0.585938 12.265625 -0.390625 C 12.035156 -0.273438 11.804688 -0.21875 11.578125 -0.21875 C 10.390625 -0.238281 9.179688 -0.1875 7.953125 -0.0625 C 6.722656 0.0625 5.484375 0.0390625 4.234375 -0.125 C 3.921875 -0.4375 3.632812 -0.722656 3.375 -0.984375 C 3.320312 -1.179688 3.269531 -1.335938 3.21875 -1.453125 C 3.175781 -1.566406 3.15625 -1.679688 3.15625 -1.796875 C 3.132812 -2.421875 3.101562 -3.03125 3.0625 -3.625 C 3.019531 -4.226562 3 -4.828125 3 -5.421875 C 3 -5.960938 3.007812 -6.488281 3.03125 -7 C 3.0625 -7.519531 3.265625 -7.976562 3.640625 -8.375 C 3.523438 -8.570312 3.429688 -8.726562 3.359375 -8.84375 C 3.285156 -8.957031 3.21875 -9.070312 3.15625 -9.1875 C 3.132812 -9.300781 3.109375 -9.414062 3.078125 -9.53125 C 3.046875 -9.644531 3.03125 -9.757812 3.03125 -9.875 C 3.007812 -10.53125 3.003906 -11.1875 3.015625 -11.84375 C 3.023438 -12.5 2.875 -13.15625 2.5625 -13.8125 C 2.476562 -14.007812 2.4375 -14.234375 2.4375 -14.484375 C 2.4375 -14.742188 2.4375 -14.988281 2.4375 -15.21875 C 2.4375 -16.675781 2.4375 -18.128906 2.4375 -19.578125 C 2.4375 -21.035156 2.421875 -22.488281 2.390625 -23.9375 C 2.390625 -24.625 2.484375 -25.28125 2.671875 -25.90625 C 2.859375 -26.53125 3.007812 -27.171875 3.125 -27.828125 C 3.207031 -28.171875 3.363281 -28.488281 3.59375 -28.78125 C 3.820312 -29.082031 4.050781 -29.363281 4.28125 -29.625 C 4.675781 -29.789062 5.085938 -29.878906 5.515625 -29.890625 C 5.941406 -29.910156 6.367188 -29.9375 6.796875 -29.96875 C 6.910156 -29.96875 7.257812 -29.96875 7.84375 -29.96875 C 8.425781 -29.96875 9.082031 -29.957031 9.8125 -29.9375 C 10.539062 -29.925781 11.195312 -29.921875 11.78125 -29.921875 C 12.363281 -29.921875 12.695312 -29.90625 12.78125 -29.875 C 12.945312 -29.851562 13.125 -29.828125 13.3125 -29.796875 C 13.5 -29.765625 13.675781 -29.707031 13.84375 -29.625 C 13.988281 -29.570312 14.132812 -29.519531 14.28125 -29.46875 C 14.425781 -29.425781 14.597656 -29.453125 14.796875 -29.546875 C 15.242188 -29.742188 15.707031 -29.832031 16.1875 -29.8125 C 16.675781 -29.800781 17.164062 -29.78125 17.65625 -29.75 C 17.800781 -29.726562 17.9375 -29.671875 18.0625 -29.578125 C 18.1875 -29.492188 18.4375 -29.28125 18.8125 -28.9375 C 18.84375 -28.820312 18.878906 -28.707031 18.921875 -28.59375 C 18.960938 -28.476562 19 -28.363281 19.03125 -28.25 C 19.050781 -28 19.066406 -27.75 19.078125 -27.5 C 19.097656 -27.257812 19.125 -27 19.15625 -26.71875 C 18.976562 -26.550781 18.816406 -26.382812 18.671875 -26.21875 C 18.535156 -26.0625 18.410156 -25.929688 18.296875 -25.828125 C 17.753906 -25.617188 17.234375 -25.519531 16.734375 -25.53125 C 16.234375 -25.550781 15.742188 -25.5625 15.265625 -25.5625 C 14.859375 -25.5625 14.441406 -25.582031 14.015625 -25.625 C 13.585938 -25.664062 13.191406 -25.785156 12.828125 -25.984375 C 12.648438 -26.078125 12.46875 -26.128906 12.28125 -26.140625 C 12.101562 -26.148438 11.925781 -26.15625 11.75 -26.15625 C 11.070312 -26.15625 10.40625 -26.15625 9.75 -26.15625 C 9.09375 -26.15625 8.4375 -26.144531 7.78125 -26.125 C 7.613281 -26.125 7.457031 -26.070312 7.3125 -25.96875 C 7.164062 -25.875 7.019531 -25.78125 6.875 -25.6875 C 6.65625 -24.75 6.570312 -23.820312 6.625 -22.90625 C 6.6875 -22 6.644531 -21.101562 6.5 -20.21875 C 6.4375 -20.101562 6.382812 -19.988281 6.34375 -19.875 C 6.300781 -19.757812 6.253906 -19.644531 6.203125 -19.53125 C 6.054688 -19.164062 6.03125 -18.851562 6.125 -18.59375 C 6.226562 -18.34375 6.4375 -18.21875 6.75 -18.21875 C 7.007812 -18.1875 7.257812 -18.15625 7.5 -18.125 C 7.738281 -18.09375 7.972656 -18.09375 8.203125 -18.125 C 9.234375 -18.125 10.257812 -18.128906 11.28125 -18.140625 C 12.3125 -18.160156 13.335938 -18.1875 14.359375 -18.21875 C 14.671875 -18.21875 14.976562 -18.207031 15.28125 -18.1875 C 15.582031 -18.175781 15.875 -18.140625 16.15625 -18.078125 C 16.269531 -18.078125 16.375 -18.035156 16.46875 -17.953125 C 16.570312 -17.867188 16.671875 -17.785156 16.765625 -17.703125 C 16.867188 -17.179688 16.925781 -16.648438 16.9375 -16.109375 C 16.957031 -15.566406 16.910156 -15.03125 16.796875 -14.5 C 16.710938 -14.40625 16.617188 -14.320312 16.515625 -14.25 C 16.421875 -14.1875 16.316406 -14.097656 16.203125 -13.984375 C 14.722656 -13.953125 13.234375 -13.914062 11.734375 -13.875 C 10.234375 -13.832031 8.742188 -13.796875 7.265625 -13.765625 C 7.179688 -13.617188 7.085938 -13.503906 6.984375 -13.421875 C 6.890625 -13.335938 6.828125 -13.238281 6.796875 -13.125 C 6.796875 -11.8125 6.78125 -10.492188 6.75 -9.171875 C 6.726562 -7.847656 6.769531 -6.515625 6.875 -5.171875 C 6.875 -5.003906 6.953125 -4.84375 7.109375 -4.6875 C 7.273438 -4.53125 7.425781 -4.453125 7.5625 -4.453125 C 8.59375 -4.472656 9.613281 -4.460938 10.625 -4.421875 C 11.632812 -4.378906 12.640625 -4.546875 13.640625 -4.921875 C 13.835938 -5.003906 14.078125 -5.046875 14.359375 -5.046875 C 15.128906 -5.046875 15.90625 -5.035156 16.6875 -5.015625 C 17.476562 -5.003906 18.269531 -4.984375 19.0625 -4.953125 C 19.144531 -4.953125 19.238281 -4.898438 19.34375 -4.796875 C 19.445312 -4.703125 19.539062 -4.628906 19.625 -4.578125 Z M 4.875 -17.78125 C 4.988281 -17.75 5.070312 -17.816406 5.125 -17.984375 C 5.1875 -18.160156 5.175781 -18.347656 5.09375 -18.546875 C 5.09375 -18.578125 5.0625 -18.597656 5 -18.609375 C 4.945312 -18.628906 4.90625 -18.640625 4.875 -18.640625 C 4.644531 -18.492188 4.570312 -18.296875 4.65625 -18.046875 C 4.6875 -17.867188 4.757812 -17.78125 4.875 -17.78125 Z M 4.875 -17.78125 "/></g></g></g><g fill="#412269" fill-opacity="1"><g transform="translate(259.326531, 274.865217)"><g><path d="M 19.625 -4.578125 C 19.769531 -4.035156 19.828125 -3.492188 19.796875 -2.953125 C 19.765625 -2.410156 19.734375 -1.851562 19.703125 -1.28125 C 19.535156 -1.195312 19.375 -1.109375 19.21875 -1.015625 C 19.0625 -0.929688 18.894531 -0.890625 18.71875 -0.890625 C 18.0625 -0.835938 17.398438 -0.8125 16.734375 -0.8125 C 16.066406 -0.8125 15.40625 -0.8125 14.75 -0.8125 C 14.320312 -0.78125 13.898438 -0.75 13.484375 -0.71875 C 13.078125 -0.695312 12.671875 -0.585938 12.265625 -0.390625 C 12.035156 -0.273438 11.804688 -0.21875 11.578125 -0.21875 C 10.390625 -0.238281 9.179688 -0.1875 7.953125 -0.0625 C 6.722656 0.0625 5.484375 0.0390625 4.234375 -0.125 C 3.921875 -0.4375 3.632812 -0.722656 3.375 -0.984375 C 3.320312 -1.179688 3.269531 -1.335938 3.21875 -1.453125 C 3.175781 -1.566406 3.15625 -1.679688 3.15625 -1.796875 C 3.132812 -2.421875 3.101562 -3.03125 3.0625 -3.625 C 3.019531 -4.226562 3 -4.828125 3 -5.421875 C 3 -5.960938 3.007812 -6.488281 3.03125 -7 C 3.0625 -7.519531 3.265625 -7.976562 3.640625 -8.375 C 3.523438 -8.570312 3.429688 -8.726562 3.359375 -8.84375 C 3.285156 -8.957031 3.21875 -9.070312 3.15625 -9.1875 C 3.132812 -9.300781 3.109375 -9.414062 3.078125 -9.53125 C 3.046875 -9.644531 3.03125 -9.757812 3.03125 -9.875 C 3.007812 -10.53125 3.003906 -11.1875 3.015625 -11.84375 C 3.023438 -12.5 2.875 -13.15625 2.5625 -13.8125 C 2.476562 -14.007812 2.4375 -14.234375 2.4375 -14.484375 C 2.4375 -14.742188 2.4375 -14.988281 2.4375 -15.21875 C 2.4375 -16.675781 2.4375 -18.128906 2.4375 -19.578125 C 2.4375 -21.035156 2.421875 -22.488281 2.390625 -23.9375 C 2.390625 -24.625 2.484375 -25.28125 2.671875 -25.90625 C 2.859375 -26.53125 3.007812 -27.171875 3.125 -27.828125 C 3.207031 -28.171875 3.363281 -28.488281 3.59375 -28.78125 C 3.820312 -29.082031 4.050781 -29.363281 4.28125 -29.625 C 4.675781 -29.789062 5.085938 -29.878906 5.515625 -29.890625 C 5.941406 -29.910156 6.367188 -29.9375 6.796875 -29.96875 C 6.910156 -29.96875 7.257812 -29.96875 7.84375 -29.96875 C 8.425781 -29.96875 9.082031 -29.957031 9.8125 -29.9375 C 10.539062 -29.925781 11.195312 -29.921875 11.78125 -29.921875 C 12.363281 -29.921875 12.695312 -29.90625 12.78125 -29.875 C 12.945312 -29.851562 13.125 -29.828125 13.3125 -29.796875 C 13.5 -29.765625 13.675781 -29.707031 13.84375 -29.625 C 13.988281 -29.570312 14.132812 -29.519531 14.28125 -29.46875 C 14.425781 -29.425781 14.597656 -29.453125 14.796875 -29.546875 C 15.242188 -29.742188 15.707031 -29.832031 16.1875 -29.8125 C 16.675781 -29.800781 17.164062 -29.78125 17.65625 -29.75 C 17.800781 -29.726562 17.9375 -29.671875 18.0625 -29.578125 C 18.1875 -29.492188 18.4375 -29.28125 18.8125 -28.9375 C 18.84375 -28.820312 18.878906 -28.707031 18.921875 -28.59375 C 18.960938 -28.476562 19 -28.363281 19.03125 -28.25 C 19.050781 -28 19.066406 -27.75 19.078125 -27.5 C 19.097656 -27.257812 19.125 -27 19.15625 -26.71875 C 18.976562 -26.550781 18.816406 -26.382812 18.671875 -26.21875 C 18.535156 -26.0625 18.410156 -25.929688 18.296875 -25.828125 C 17.753906 -25.617188 17.234375 -25.519531 16.734375 -25.53125 C 16.234375 -25.550781 15.742188 -25.5625 15.265625 -25.5625 C 14.859375 -25.5625 14.441406 -25.582031 14.015625 -25.625 C 13.585938 -25.664062 13.191406 -25.785156 12.828125 -25.984375 C 12.648438 -26.078125 12.46875 -26.128906 12.28125 -26.140625 C 12.101562 -26.148438 11.925781 -26.15625 11.75 -26.15625 C 11.070312 -26.15625 10.40625 -26.15625 9.75 -26.15625 C 9.09375 -26.15625 8.4375 -26.144531 7.78125 -26.125 C 7.613281 -26.125 7.457031 -26.070312 7.3125 -25.96875 C 7.164062 -25.875 7.019531 -25.78125 6.875 -25.6875 C 6.65625 -24.75 6.570312 -23.820312 6.625 -22.90625 C 6.6875 -22 6.644531 -21.101562 6.5 -20.21875 C 6.4375 -20.101562 6.382812 -19.988281 6.34375 -19.875 C 6.300781 -19.757812 6.253906 -19.644531 6.203125 -19.53125 C 6.054688 -19.164062 6.03125 -18.851562 6.125 -18.59375 C 6.226562 -18.34375 6.4375 -18.21875 6.75 -18.21875 C 7.007812 -18.1875 7.257812 -18.15625 7.5 -18.125 C 7.738281 -18.09375 7.972656 -18.09375 8.203125 -18.125 C 9.234375 -18.125 10.257812 -18.128906 11.28125 -18.140625 C 12.3125 -18.160156 13.335938 -18.1875 14.359375 -18.21875 C 14.671875 -18.21875 14.976562 -18.207031 15.28125 -18.1875 C 15.582031 -18.175781 15.875 -18.140625 16.15625 -18.078125 C 16.269531 -18.078125 16.375 -18.035156 16.46875 -17.953125 C 16.570312 -17.867188 16.671875 -17.785156 16.765625 -17.703125 C 16.867188 -17.179688 16.925781 -16.648438 16.9375 -16.109375 C 16.957031 -15.566406 16.910156 -15.03125 16.796875 -14.5 C 16.710938 -14.40625 16.617188 -14.320312 16.515625 -14.25 C 16.421875 -14.1875 16.316406 -14.097656 16.203125 -13.984375 C 14.722656 -13.953125 13.234375 -13.914062 11.734375 -13.875 C 10.234375 -13.832031 8.742188 -13.796875 7.265625 -13.765625 C 7.179688 -13.617188 7.085938 -13.503906 6.984375 -13.421875 C 6.890625 -13.335938 6.828125 -13.238281 6.796875 -13.125 C 6.796875 -11.8125 6.78125 -10.492188 6.75 -9.171875 C 6.726562 -7.847656 6.769531 -6.515625 6.875 -5.171875 C 6.875 -5.003906 6.953125 -4.84375 7.109375 -4.6875 C 7.273438 -4.53125 7.425781 -4.453125 7.5625 -4.453125 C 8.59375 -4.472656 9.613281 -4.460938 10.625 -4.421875 C 11.632812 -4.378906 12.640625 -4.546875 13.640625 -4.921875 C 13.835938 -5.003906 14.078125 -5.046875 14.359375 -5.046875 C 15.128906 -5.046875 15.90625 -5.035156 16.6875 -5.015625 C 17.476562 -5.003906 18.269531 -4.984375 19.0625 -4.953125 C 19.144531 -4.953125 19.238281 -4.898438 19.34375 -4.796875 C 19.445312 -4.703125 19.539062 -4.628906 19.625 -4.578125 Z M 4.875 -17.78125 C 4.988281 -17.75 5.070312 -17.816406 5.125 -17.984375 C 5.1875 -18.160156 5.175781 -18.347656 5.09375 -18.546875 C 5.09375 -18.578125 5.0625 -18.597656 5 -18.609375 C 4.945312 -18.628906 4.90625 -18.640625 4.875 -18.640625 C 4.644531 -18.492188 4.570312 -18.296875 4.65625 -18.046875 C 4.6875 -17.867188 4.757812 -17.78125 4.875 -17.78125 Z M 4.875 -17.78125 "/></g></g></g></g></g></g></svg>